<?xml version="1.0" encoding="utf-8"?>
<!DOCTYPE svg PUBLIC "-//W3C//DTD SVG 1.1//EN" "http://www.w3.org/Graphics/SVG/1.1/DTD/svg11.dtd">
<svg version="1.1" xmlns="http://www.w3.org/2000/svg" xmlns:xlink="http://www.w3.org/1999/xlink" x="0px" y="0px"
	 width="32px" height="32px" viewBox="0 0 32 32" enable-background="new 0 0 32 32" xml:space="preserve">
<g>
	<g>
		<path fill="#FFD351" d="M31.205,24.164L20.524,3.267C19.085,0.424,17.108,0,16.058,0c-1.826,0-3.495,1.231-4.573,3.368
			L0.794,24.112c-1.37,2.709-0.665,4.581-0.123,5.456C1.645,31.135,3.512,32,5.933,32h20.137c2.434,0,4.304-0.858,5.269-2.418
			C31.875,28.718,32.57,26.866,31.205,24.164z M27.902,27.477c-0.15,0.247-0.79,0.511-1.833,0.511H5.933
			c-1.035,0-1.662-0.264-1.826-0.524c-0.124-0.202-0.122-0.727,0.286-1.533l10.69-20.745c0.465-0.922,0.891-1.16,0.966-1.172
			c0.076,0.014,0.453,0.237,0.871,1.064l10.681,20.898C27.984,26.731,28.029,27.274,27.902,27.477z"/>
	</g>
</g>
<g>
	<g>
		<path fill="#707070" d="M14,10v10h4V10H14z M14,26h4v-4h-4V26z"/>
	</g>
</g>
</svg>
