<?xml version="1.0" ?><!DOCTYPE svg  PUBLIC '-//W3C//DTD SVG 1.1//EN'  'http://www.w3.org/Graphics/SVG/1.1/DTD/svg11.dtd'><svg enable-background="new 0 0 6144 6144" height="6144px" id="Слой_1" version="1.1" viewBox="0 0 6144 6144" width="6144px" xml:space="preserve" xmlns="http://www.w3.org/2000/svg" xmlns:xlink="http://www.w3.org/1999/xlink"><circle cx="3072" cy="3071" fill="#BA5648" r="3072"/><path d="M3081.001,6137c949.032,0,1797.546-430.351,2361.056-1106.543V2770.312H719.945v2260.144  C1283.455,5706.648,2131.969,6137,3081.001,6137z" fill="#EAE7D8"/><path d="M3258.129,960.539c-168.211-139.793-345.924-10.246-345.924-10.246L718.945,2771.312h4722.112  C5441.057,2771.312,3453.094,1122.567,3258.129,960.539z" fill="#EAE7D8"/><path d="M3212.637,1313.497c-135.052-107.998-266.873,0-266.873,0L719.945,3139.846l2320.556,1437.188  l2394.726-1437.188C5435.227,3139.846,3371.025,1440.156,3212.637,1313.497z" fill="#C3D8DB"/><g><path d="M1134.676,905.746v3452.588c497.134,478.925,1290.796-239.414,2035.61-239.414   c830.955,0,1458.643,646.273,1965.464,66.012V1653.62l-747.875-747.875L1134.676,905.746L1134.676,905.746z" fill="#D8D8D8"/><g><path d="M3593.378,1572.62h-918c-44.735,0-81,36.265-81,81c0,44.736,36.265,81,81,81h918c44.736,0,81-36.264,81-81    C3674.378,1608.886,3638.114,1572.62,3593.378,1572.62z" fill="#848481"/><path d="M4674.213,2016.429h-3078c-44.735,0-81,36.265-81,81c0,44.736,36.265,81,81,81h3078    c44.736,0,81-36.264,81-81C4755.213,2052.693,4718.949,2016.429,4674.213,2016.429z" fill="#848481"/><path d="M4674.213,2333.229h-3078c-44.735,0-81,36.265-81,81c0,44.736,36.265,81,81,81h3078    c44.736,0,81-36.264,81-81S4718.949,2333.229,4674.213,2333.229z" fill="#848481"/><path d="M4673.378,2657.229h-3078c-44.735,0-81,36.265-81,81c0,44.736,36.265,81,81,81h3078    c44.735,0,81-36.264,81-81S4718.114,2657.229,4673.378,2657.229z" fill="#848481"/><path d="M4673.795,2980.062h-3078c-44.735,0-81,36.265-81,81s36.265,81,81,81h3078c44.736,0,81-36.265,81-81    C4754.795,3016.328,4718.531,2980.062,4673.795,2980.062z" fill="#848481"/><path d="M4673.795,3296.862h-3078c-44.735,0-81,36.264-81,81c0,44.735,36.265,81,81,81h3078    c44.736,0,81-36.265,81-81C4754.795,3333.128,4718.531,3296.862,4673.795,3296.862z" fill="#848481"/><path d="M4672.961,3620.862h-3078c-44.736,0-81,36.265-81,81s36.264,81,81,81h3078c44.735,0,81-36.265,81-81    C4753.961,3657.128,4717.696,3620.862,4672.961,3620.862z" fill="#848481"/></g></g><g opacity="0.2"><path d="M1133.841,1144.5v3436.554c492.361,476.701,1278.403-238.302,2016.065-238.302   c822.977,0,1444.638,643.272,1946.594,65.705V1888.901L4355.806,1144.5H1133.841z" fill="#020202"/><g><path d="M3568.936,1808.278H2659.75c-44.306,0-80.222,36.096-80.222,80.624c0,44.528,35.917,80.624,80.222,80.624    h909.186c44.306,0,80.222-36.096,80.222-80.624C3649.159,1844.375,3613.242,1808.278,3568.936,1808.278z" fill="#020202"/><path d="M4639.394,2250.025H1590.947c-44.306,0-80.222,36.096-80.222,80.624s35.916,80.624,80.222,80.624h3048.447    c44.307,0,80.223-36.096,80.223-80.624C4719.617,2286.121,4683.7,2250.025,4639.394,2250.025z" fill="#020202"/><path d="M4639.394,2565.354H1590.947c-44.306,0-80.222,36.096-80.222,80.624s35.916,80.624,80.222,80.624h3048.447    c44.307,0,80.223-36.096,80.223-80.624S4683.7,2565.354,4639.394,2565.354z" fill="#020202"/><path d="M4638.567,2887.849H1590.12c-44.306,0-80.222,36.096-80.222,80.624s35.916,80.624,80.222,80.624h3048.448    c44.306,0,80.222-36.096,80.222-80.624S4682.873,2887.849,4638.567,2887.849z" fill="#020202"/><path d="M4638.98,3209.183H1590.533c-44.306,0-80.222,36.096-80.222,80.624s35.916,80.624,80.222,80.624H4638.98    c44.306,0,80.222-36.096,80.222-80.624C4719.203,3245.28,4683.287,3209.183,4638.98,3209.183z" fill="#020202"/><path d="M4638.98,3524.512H1590.533c-44.306,0-80.222,36.096-80.222,80.624s35.916,80.624,80.222,80.624H4638.98    c44.306,0,80.222-36.096,80.222-80.624C4719.203,3560.609,4683.287,3524.512,4638.98,3524.512z" fill="#020202"/><path d="M4638.154,3847.007H1589.707c-44.306,0-80.222,36.096-80.222,80.624s35.916,80.624,80.222,80.624h3048.447    c44.306,0,80.222-36.096,80.222-80.624C4718.376,3883.104,4682.459,3847.007,4638.154,3847.007z" fill="#020202"/></g></g><g><path d="M1036.607,1171.449v3452.588c497.134,478.925,1290.796-239.414,2035.61-239.414   c830.955,0,1458.643,646.273,1965.465,66.012V1919.324l-747.875-747.875H1036.607z" fill="#E2E2E2"/><g><path d="M3495.309,1838.324h-918c-44.735,0-81,36.265-81,81c0,44.736,36.265,81,81,81h918    c44.736,0,81-36.264,81-81C3576.309,1874.589,3540.044,1838.324,3495.309,1838.324z" fill="#848481"/><path d="M4576.144,2282.132h-3078c-44.735,0-81,36.265-81,81c0,44.736,36.265,81,81,81h3078    c44.736,0,81-36.264,81-81S4620.879,2282.132,4576.144,2282.132z" fill="#848481"/><path d="M4576.144,2598.932h-3078c-44.735,0-81,36.265-81,81c0,44.736,36.265,81,81,81h3078    c44.736,0,81-36.264,81-81C4657.144,2635.197,4620.879,2598.932,4576.144,2598.932z" fill="#848481"/><path d="M4575.309,2922.932h-3078c-44.735,0-81,36.265-81,81c0,44.736,36.265,81,81,81h3078    c44.735,0,81-36.264,81-81C4656.309,2959.197,4620.044,2922.932,4575.309,2922.932z" fill="#848481"/><path d="M4575.726,3245.766h-3078c-44.735,0-81,36.265-81,81s36.265,81,81,81h3078c44.736,0,81-36.265,81-81    S4620.462,3245.766,4575.726,3245.766z" fill="#848481"/><path d="M4575.726,3562.566h-3078c-44.735,0-81,36.264-81,81c0,44.735,36.265,81,81,81h3078    c44.736,0,81-36.265,81-81C4656.726,3598.831,4620.462,3562.566,4575.726,3562.566z" fill="#848481"/><path d="M4574.892,3886.566h-3078c-44.736,0-81,36.265-81,81s36.264,81,81,81h3078c44.735,0,81-36.265,81-81    C4655.892,3922.831,4619.627,3886.566,4574.892,3886.566z" fill="#848481"/></g></g><g opacity="0.2"><path d="M1034.52,1428.5v3437.979c493.767,476.898,1282.055-238.401,2021.825-238.401   c825.328,0,1448.765,643.539,1952.155,65.732v-2520.6l-742.811-744.71H1034.52z" fill="#020202"/><g><path d="M3476.572,2092.552h-911.783c-44.432,0-80.452,36.111-80.452,80.657s36.019,80.657,80.452,80.657h911.783    c44.433,0,80.452-36.111,80.452-80.657C3557.024,2128.665,3521.005,2092.552,3476.572,2092.552z" fill="#020202"/><path d="M4550.088,2534.483H1492.932c-44.433,0-80.452,36.111-80.452,80.657s36.019,80.657,80.452,80.657h3057.157    c44.433,0,80.451-36.111,80.451-80.657S4594.521,2534.483,4550.088,2534.483z" fill="#020202"/><path d="M4550.088,2849.942H1492.932c-44.433,0-80.452,36.111-80.452,80.657s36.019,80.657,80.452,80.657h3057.157    c44.433,0,80.451-36.111,80.451-80.657S4594.521,2849.942,4550.088,2849.942z" fill="#020202"/><path d="M4549.259,3172.571H1492.102c-44.432,0-80.452,36.111-80.452,80.657s36.019,80.657,80.452,80.657h3057.157    c44.433,0,80.452-36.111,80.452-80.657C4629.71,3208.682,4593.691,3172.571,4549.259,3172.571z" fill="#020202"/><path d="M4549.673,3494.039H1492.517c-44.432,0-80.452,36.111-80.452,80.657s36.019,80.657,80.452,80.657h3057.157    c44.433,0,80.451-36.111,80.451-80.657C4630.125,3530.151,4594.106,3494.039,4549.673,3494.039z" fill="#020202"/><path d="M4549.673,3809.498H1492.517c-44.432,0-80.452,36.111-80.452,80.657s36.019,80.657,80.452,80.657h3057.157    c44.433,0,80.451-36.111,80.451-80.657C4630.125,3845.61,4594.106,3809.498,4549.673,3809.498z" fill="#020202"/><path d="M4548.845,4132.127H1491.688c-44.433,0-80.451,36.111-80.451,80.657c0,44.546,36.019,80.657,80.451,80.657    h3057.156c44.433,0,80.452-36.111,80.452-80.657C4629.296,4168.239,4593.277,4132.127,4548.845,4132.127z" fill="#020202"/></g></g><g><path d="M958.22,1456.829v3452.588c497.134,478.925,1290.796-239.414,2035.61-239.414   c830.955,0,1458.643,646.273,1965.464,66.012V2204.704l-747.875-747.875L958.22,1456.829L958.22,1456.829z" fill="#F4F4F4"/><polygon fill="#B7B7B3" points="4187.734,2236.236 4959.294,2204.704 4211.419,1456.829  "/><polygon fill="#F4F4F4" points="4211.419,2204.704 4959.294,2204.704 4211.419,1456.829  "/><g><path d="M4496.922,3208.312h-3078c-44.735,0-81,36.265-81,81c0,44.736,36.265,81,81,81h3078    c44.735,0,81-36.264,81-81S4541.657,3208.312,4496.922,3208.312z" fill="#848481"/><path d="M4497.339,3531.146h-3078c-44.735,0-81,36.265-81,81s36.265,81,81,81h3078c44.736,0,81-36.265,81-81    S4542.075,3531.146,4497.339,3531.146z" fill="#848481"/><path d="M4497.339,3847.946h-3078c-44.735,0-81,36.264-81,81c0,44.735,36.265,81,81,81h3078    c44.736,0,81-36.265,81-81S4542.075,3847.946,4497.339,3847.946z" fill="#848481"/><path d="M4496.505,4171.945h-3078c-44.736,0-81,36.265-81,81s36.264,81,81,81h3078c44.735,0,81-36.265,81-81    C4577.505,4208.211,4541.24,4171.945,4496.505,4171.945z" fill="#848481"/></g></g><polygon fill="#B7B7B3" points="4270.439,1940.206 5037.681,1919.324 4289.806,1171.449 "/><polygon fill="#F4F4F4" points="4289.806,1919.324 5037.681,1919.324 4289.806,1171.449 "/><polygon fill="#B7B7B3" points="4369.449,1675.18 5135.75,1653.62 4387.875,905.746 "/><polygon fill="#F4F4F4" points="4387.875,1653.62 5135.75,1653.62 4387.875,905.746 "/><polygon enable-background="new    " fill="#020202" opacity="0.2" points="3206.93,4217.5 719.945,2770.312 3081.001,4369.378   5442.057,2770.312 "/><path d="M5416.711,5060.488l-46.639-2236.155L3045.928,4438.599  c0,0-199.427,123.881,5,270.871c90.362,64.973,837.414,636.871,1479.865,1064.574  C4844.349,5596.682,5184.111,5332.487,5416.711,5060.488z" enable-background="new    " fill="#020202" opacity="0.2"/><path d="M5442.057,5030.456V2770.312l-2396.129,1622.82c0,0-204.427,129.881,0,276.871  c90.301,64.93,914.885,616.688,1571.86,1055.545C4931.987,5543.669,5210.985,5307.735,5442.057,5030.456z" fill="#EAE7D8"/><path d="M3165.501,4422.5L719.945,2878.355v2152.101  c238.948,286.729,570.437,551.588,897.812,735.841c645.497-430.95,1420.954-999.516,1511.745-1064.797  C3333.928,4554.509,3165.501,4422.5,3165.501,4422.5z" enable-background="new    " fill="#020202" opacity="0.2"/><path d="M3116.074,4393.132L719.945,2770.312v2260.144c231.072,277.279,510.07,513.213,824.269,695.093  c656.975-438.857,1481.559-990.616,1571.86-1055.545C3320.501,4523.013,3116.074,4393.132,3116.074,4393.132z" fill="#EAE7D8"/><path d="M4804.41,1552.606l-7.617,658.637c-0.809,69.953-57.647,125.997-126.952,125.177  s-124.831-58.193-124.022-128.145l0.466-40.247l7.152-618.391l4.567-394.898c1.294-111.925,92.236-201.594,203.123-200.283  s199.73,93.108,198.436,205.033l-3.612,312.316l-49.605-51.549l2.984-258.01c0.971-83.943-65.661-152.791-148.827-153.774  c-83.166-0.984-151.372,66.269-152.342,150.212l-3.357,290.23c0.705-0.521,1.408-1.044,2.123-1.55  c-1.438,5.722-2.24,11.704-2.312,17.868l-8.594,743.078c-0.485,41.972,32.831,76.395,74.413,76.887  c41.583,0.492,75.686-33.134,76.171-75.106l7.72-667.54C4754.325,1542.551,4778.197,1526.284,4804.41,1552.606z" fill="#4A4C4C"/><path d="M6408.501,1201.499" fill="#3C3D3D"/><path d="M942.632,5270.559c0.199,0.193,0.398,0.386,0.597,0.579  c38.324,37.143,77.611,73.297,117.823,108.42c-471.677-540.024-757.439-1246.61-757.439-2019.946  c0-1696.619,1375.381-3072,3072-3072c773.336,0,1479.922,285.762,2019.948,757.439c-35.123-40.212-71.277-79.499-108.42-117.823  c-0.013-0.013-0.026-0.026-0.039-0.04c-0.201-0.207-0.402-0.414-0.604-0.622c-4.384-4.52-8.782-9.028-13.194-13.521  c-0.107-0.109-0.215-0.219-0.322-0.328c-0.201-0.205-0.402-0.41-0.604-0.615c-4.297-4.374-8.608-8.735-12.931-13.083  c-0.346-0.348-0.691-0.696-1.038-1.043c-4.485-4.507-8.984-9-13.497-13.478c-0.134-0.133-0.268-0.267-0.402-0.4  c-37.826-37.525-76.622-74.073-116.347-109.604c-0.317-0.283-0.634-0.566-0.951-0.849c-4.571-4.084-9.153-8.154-13.748-12.212  c-0.457-0.403-0.915-0.807-1.372-1.21c-4.523-3.989-9.058-7.965-13.604-11.928c-0.472-0.411-0.943-0.822-1.415-1.232  c-4.633-4.033-9.277-8.052-13.934-12.057c-0.338-0.291-0.676-0.583-1.015-0.874c-4.778-4.107-9.57-8.2-14.375-12.277  c-0.202-0.171-0.403-0.344-0.605-0.515c-4.117-3.493-8.246-6.973-12.382-10.445c-0.416-0.349-0.831-0.7-1.248-1.048  c-4.002-3.355-8.014-6.699-12.034-10.035c-0.534-0.443-1.067-0.887-1.602-1.331c-3.949-3.272-7.907-6.533-11.872-9.786  c-0.601-0.492-1.2-0.985-1.801-1.477c-3.942-3.229-7.894-6.448-11.852-9.657c-0.606-0.491-1.211-0.982-1.818-1.473  c-3.98-3.222-7.97-6.436-11.967-9.638c-0.564-0.453-1.13-0.905-1.695-1.357c-4.057-3.247-8.122-6.483-12.196-9.71  c-0.479-0.379-0.959-0.758-1.438-1.137c-4.168-3.297-8.345-6.584-12.53-9.86c-0.354-0.278-0.71-0.555-1.065-0.833  c-4.313-3.372-8.634-6.734-12.965-10.084c-0.469-0.363-0.939-0.724-1.409-1.087c-4.771-3.686-9.554-7.358-14.348-11.017  c-0.359-0.274-0.719-0.547-1.078-0.821c-0.202-0.154-0.405-0.309-0.607-0.462c-4.624-3.524-9.26-7.035-13.905-10.534  c-0.785-0.591-1.57-1.182-2.356-1.772c-4.454-3.349-8.92-6.685-13.394-10.01c-0.84-0.624-1.679-1.249-2.52-1.873  c-4.582-3.398-9.175-6.782-13.776-10.155c-0.713-0.523-1.425-1.048-2.139-1.57c-3.386-2.478-6.778-4.946-10.175-7.41  c-0.976-0.708-1.952-1.416-2.929-2.123c-3.348-2.423-6.701-4.841-10.059-7.25c-0.826-0.592-1.653-1.183-2.479-1.774  c-11.292-8.086-22.641-16.099-34.047-24.036c-0.402-0.28-0.802-0.561-1.204-0.84c-3.311-2.301-6.628-4.592-9.948-6.88  c-1.212-0.835-2.423-1.671-3.636-2.504c-3.161-2.172-6.325-4.338-9.494-6.498c-1.304-0.889-2.61-1.775-3.916-2.663  c-3.208-2.18-6.417-4.357-9.634-6.525c-0.49-0.33-0.981-0.658-1.471-0.987c-4.949-3.331-9.908-6.648-14.877-9.952  c-0.765-0.508-1.532-1.014-2.297-1.522c-4.721-3.131-9.449-6.25-14.187-9.356c-0.989-0.648-1.979-1.294-2.969-1.941  c-4.479-2.928-8.965-5.845-13.461-8.751c-1.093-0.707-2.187-1.412-3.281-2.117c-4.486-2.892-8.98-5.771-13.481-8.639  c-1.056-0.673-2.112-1.347-3.169-2.019c-4.638-2.946-9.283-5.88-13.938-8.803c-0.862-0.541-1.723-1.084-2.585-1.625  c-5.026-3.149-10.061-6.283-15.106-9.404c-0.527-0.326-1.054-0.655-1.582-0.98c-13.812-8.533-27.7-16.956-41.657-25.274  c-0.775-0.462-1.551-0.924-2.327-1.385c-13.935-8.29-27.939-16.476-42.016-24.55c-0.355-0.204-0.712-0.406-1.068-0.61  c-5.315-3.045-10.64-6.076-15.974-9.091c-0.851-0.481-1.705-0.959-2.556-1.439c-4.844-2.731-9.695-5.451-14.555-8.157  c-1.117-0.622-2.236-1.241-3.354-1.861c-4.628-2.569-9.263-5.127-13.906-7.673c-1.235-0.677-2.472-1.353-3.708-2.029  c-4.562-2.493-9.13-4.975-13.705-7.445c-1.268-0.685-2.535-1.369-3.803-2.051c-4.611-2.481-9.229-4.949-13.854-7.408  c-0.207-0.11-0.413-0.219-0.62-0.329c-1.014-0.539-2.027-1.079-3.042-1.617c-4.76-2.521-9.527-5.029-14.302-7.526  c-1.042-0.545-2.082-1.093-3.125-1.637c-5.125-2.673-10.258-5.33-15.399-7.974c-0.673-0.346-1.344-0.696-2.018-1.042  c-23.775-12.208-47.73-24.115-71.86-35.715c-0.179-0.086-0.359-0.172-0.538-0.257c-0.494-0.238-0.99-0.473-1.484-0.71  c-5.218-2.503-10.444-4.996-15.679-7.471c-1.163-0.55-2.328-1.095-3.491-1.643c-4.763-2.245-9.531-4.48-14.307-6.702  c-0.298-0.139-0.598-0.276-0.896-0.415c-1.162-0.54-2.326-1.078-3.489-1.616c-4.503-2.085-9.009-4.161-13.524-6.226  c-1.586-0.725-3.174-1.447-4.762-2.17c-4.42-2.012-8.846-4.014-13.277-6.005c-1.643-0.738-3.287-1.476-4.931-2.211  c-4.425-1.979-8.857-3.947-13.293-5.906c-1.617-0.714-3.232-1.429-4.851-2.14c-4.543-1.997-9.094-3.98-13.648-5.956  c-1.494-0.648-2.987-1.299-4.482-1.944c-4.825-2.083-9.658-4.151-14.496-6.211c-1.215-0.518-2.429-1.039-3.646-1.555  c-5.494-2.33-10.997-4.644-16.507-6.942c-0.551-0.23-1.101-0.463-1.652-0.693c-3.527-1.469-7.061-2.926-10.594-4.383  c-1.51-0.622-3.019-1.247-4.53-1.867c-3.411-1.4-6.827-2.791-10.245-4.179c-1.69-0.687-3.382-1.372-5.075-2.055  c-3.452-1.395-6.906-2.785-10.364-4.167c-1.43-0.571-2.862-1.139-4.294-1.708c-3.625-1.443-7.251-2.885-10.884-4.314  c-0.877-0.345-1.756-0.685-2.633-1.029c-5.229-2.052-10.462-4.093-15.705-6.117c-1.501-0.58-3.006-1.153-4.509-1.73  c-4.635-1.781-9.274-3.556-13.92-5.314c-1.792-0.679-3.587-1.352-5.38-2.027c-4.374-1.647-8.751-3.287-13.135-4.914  c-1.943-0.722-3.889-1.439-5.833-2.157c-4.261-1.572-8.525-3.136-12.795-4.689c-2.012-0.732-4.025-1.462-6.04-2.19  c-4.234-1.53-8.473-3.051-12.715-4.563c-2.019-0.719-4.037-1.439-6.057-2.154c-4.298-1.522-8.601-3.032-12.908-4.535  c-1.951-0.681-3.9-1.364-5.853-2.042c-4.47-1.55-8.947-3.086-13.426-4.616c-1.78-0.607-3.557-1.22-5.338-1.825  c-4.878-1.656-9.764-3.295-14.653-4.928c-1.376-0.459-2.75-0.925-4.127-1.382c-6.021-2.001-12.05-3.984-18.088-5.948  c-0.242-0.079-0.483-0.159-0.725-0.238c-12.828-4.17-25.694-8.257-38.595-12.263c-1.151-0.357-2.306-0.708-3.458-1.064  c-5.155-1.593-10.313-3.178-15.479-4.746c-1.818-0.551-3.64-1.094-5.459-1.643c-4.512-1.359-9.027-2.714-13.547-4.053  c-2.115-0.626-4.232-1.245-6.349-1.867c-4.24-1.246-8.482-2.487-12.73-3.716c-2.271-0.656-4.544-1.307-6.817-1.958  c-4.116-1.18-8.234-2.354-12.357-3.517c-2.343-0.661-4.687-1.318-7.032-1.973c-4.08-1.141-8.164-2.272-12.25-3.396  c-2.362-0.65-4.725-1.298-7.089-1.942c-4.11-1.12-8.225-2.229-12.342-3.332c-2.327-0.624-4.654-1.248-6.983-1.866  c-4.211-1.118-8.427-2.222-12.645-3.322c-2.231-0.582-4.461-1.167-6.694-1.745c-4.453-1.15-8.912-2.285-13.372-3.416  c-1.993-0.505-3.984-1.017-5.979-1.519c-5.061-1.272-10.129-2.526-15.199-3.773c-1.395-0.343-2.788-0.694-4.184-1.035  c-13.08-3.197-26.193-6.312-39.338-9.341c-1.361-0.313-2.725-0.618-4.086-0.93c-5.129-1.175-10.261-2.342-15.4-3.491  c-2.096-0.469-4.197-0.927-6.295-1.392c-4.408-0.976-8.818-1.949-13.233-2.905c-2.405-0.521-4.813-1.033-7.22-1.548  c-4.128-0.884-8.257-1.765-12.392-2.632c-2.546-0.534-5.095-1.061-7.644-1.589c-4.008-0.831-8.019-1.656-12.033-2.471  c-2.625-0.533-5.252-1.061-7.88-1.587c-3.957-0.792-7.917-1.578-11.88-2.355c-2.657-0.521-5.316-1.04-7.975-1.554  c-3.958-0.766-7.92-1.521-11.884-2.272c-2.651-0.501-5.302-1.003-7.955-1.499c-4.026-0.751-8.057-1.49-12.089-2.225  c-2.58-0.471-5.16-0.944-7.742-1.408c-4.189-0.752-8.383-1.491-12.577-2.227c-2.427-0.425-4.851-0.857-7.28-1.277  c-4.557-0.788-9.12-1.558-13.683-2.326c-2.068-0.348-4.133-0.704-6.202-1.048c-5.803-0.964-11.613-1.908-17.427-2.84  c-0.831-0.133-1.66-0.272-2.491-0.405c-6.713-1.07-13.433-2.118-20.161-3.144c-1.432-0.218-2.868-0.427-4.301-0.643  c-5.223-0.79-10.449-1.573-15.681-2.336c-2.298-0.335-4.601-0.658-6.901-0.988c-4.374-0.627-8.747-1.254-13.127-1.863  c-2.609-0.363-5.221-0.714-7.832-1.071c-4.08-0.557-8.161-1.112-12.246-1.653c-2.76-0.365-5.524-0.722-8.287-1.08  c-3.95-0.512-7.902-1.021-11.857-1.518c-2.837-0.356-5.676-0.707-8.516-1.055c-3.899-0.479-7.799-0.952-11.702-1.416  c-2.866-0.341-5.734-0.678-8.602-1.011c-3.9-0.453-7.803-0.897-11.707-1.335c-2.862-0.321-5.725-0.642-8.59-0.955  c-3.938-0.431-7.879-0.851-11.821-1.266c-2.83-0.299-5.66-0.599-8.492-0.89c-4.036-0.415-8.077-0.815-12.118-1.214  c-2.73-0.27-5.459-0.543-8.191-0.806c-4.287-0.412-8.579-0.806-12.871-1.2c-0.584-0.054-1.168-0.107-1.751-0.162  c-1.932-0.176-3.863-0.36-5.796-0.533c-4.751-0.424-9.508-0.829-14.265-1.231c-2.01-0.17-4.016-0.35-6.027-0.516  c-6.783-0.561-13.572-1.1-20.367-1.617c-1.273-0.097-2.548-0.184-3.822-0.279c-5.544-0.415-11.092-0.821-16.645-1.206  c-2.408-0.167-4.821-0.32-7.23-0.481c-4.395-0.294-8.79-0.589-13.189-0.865c-2.832-0.177-5.667-0.342-8.501-0.512  c-3.987-0.239-7.974-0.478-11.965-0.702c-2.964-0.166-5.931-0.321-8.897-0.479c-3.93-0.209-7.862-0.416-11.797-0.61  c-1.707-0.084-3.416-0.163-5.124-0.243c-1.26-0.06-2.52-0.121-3.781-0.18c-3.91-0.182-7.821-0.359-11.733-0.526  c-0.145-0.006-0.291-0.012-0.436-0.018c-2.927-0.125-5.854-0.245-8.782-0.362c-3.74-0.148-7.482-0.29-11.227-0.426  c-3.144-0.113-6.289-0.224-9.436-0.329c-3.814-0.126-7.63-0.243-11.448-0.355c-3.068-0.09-6.137-0.181-9.207-0.262  c-3.901-0.103-7.804-0.194-11.709-0.283c-3.013-0.068-6.026-0.141-9.042-0.2c-4.077-0.081-8.156-0.146-12.237-0.21  c-2.829-0.045-5.657-0.097-8.488-0.134c-4.151-0.055-8.307-0.092-12.462-0.129c-2.773-0.026-5.544-0.061-8.319-0.079  c-6.878-0.044-13.759-0.07-20.646-0.07c-5.966,0-11.927,0.022-17.885,0.057c-1.764,0.01-3.527,0.024-5.291,0.038  c-4.403,0.033-8.805,0.074-13.204,0.125c-1.776,0.021-3.553,0.04-5.329,0.063c-5.915,0.079-11.826,0.168-17.732,0.281  c-0.024,0-0.048,0-0.073,0.001c-0.671,0.013-1.341,0.031-2.012,0.044c-12.601,0.248-25.185,0.566-37.749,0.965  c-7.419,0.236-14.831,0.504-22.237,0.792c-2.404,0.093-4.805,0.198-7.208,0.297c-5.189,0.214-10.375,0.438-15.558,0.678  c-2.656,0.123-5.312,0.249-7.966,0.378c-5.202,0.254-10.399,0.523-15.594,0.803c-2.364,0.127-4.729,0.25-7.091,0.382  c-7.393,0.415-14.78,0.85-22.158,1.316c-5.964,0.378-11.922,0.777-17.876,1.189c-1.671,0.115-3.342,0.235-5.012,0.353  c-4.413,0.312-8.823,0.634-13.231,0.965c-1.686,0.126-3.372,0.251-5.057,0.381c-7.907,0.606-15.803,1.251-23.693,1.917  c-4.448,0.375-8.897,0.748-13.341,1.143c-3.537,0.314-7.068,0.649-10.601,0.975c-15.528,1.433-31.027,2.97-46.487,4.633  c-1.874,0.202-3.745,0.413-5.618,0.618c-4.212,0.461-8.424,0.925-12.631,1.403c-2.257,0.256-4.511,0.521-6.767,0.782  c-3.839,0.445-7.676,0.894-11.51,1.353c-2.371,0.284-4.74,0.572-7.109,0.861c-3.75,0.458-7.499,0.922-11.245,1.393  c-2.369,0.298-4.738,0.597-7.105,0.9c-3.821,0.49-7.639,0.989-11.456,1.493c-2.248,0.296-4.496,0.59-6.742,0.892  c-4.176,0.561-8.348,1.134-12.518,1.711c-1.862,0.258-3.725,0.509-5.585,0.771c-12.064,1.692-24.105,3.455-36.123,5.287  c-1.858,0.283-3.712,0.576-5.569,0.862c-4.14,0.639-8.28,1.281-12.414,1.937c-2.245,0.356-4.487,0.719-6.73,1.08  c-3.767,0.606-7.533,1.216-11.295,1.835c-2.359,0.388-4.716,0.781-7.073,1.175c-3.669,0.613-7.336,1.232-11,1.858  c-2.363,0.404-4.726,0.809-7.088,1.217c-3.741,0.648-7.479,1.306-11.216,1.967c-2.237,0.396-4.474,0.79-6.71,1.19  c-4.092,0.734-8.18,1.48-12.266,2.23c-1.859,0.341-3.72,0.677-5.577,1.021c-11.879,2.203-23.734,4.475-35.565,6.814  c-1.865,0.369-3.728,0.747-5.593,1.119c-4.047,0.808-8.093,1.62-12.135,2.444c-2.231,0.455-4.459,0.917-6.688,1.377  c-3.689,0.761-7.376,1.525-11.061,2.299c-2.338,0.491-4.674,0.986-7.009,1.483c-3.607,0.767-7.212,1.54-10.814,2.319  c-2.33,0.504-4.659,1.009-6.987,1.518c-3.673,0.804-7.343,1.616-11.01,2.433c-2.22,0.494-4.441,0.986-6.659,1.485  c-4.001,0.9-7.997,1.813-11.992,2.729c-1.857,0.426-3.716,0.846-5.571,1.275c-11.689,2.703-23.353,5.472-34.991,8.308  c-1.847,0.45-3.69,0.909-5.535,1.362c-3.97,0.975-7.938,1.953-11.902,2.944c-2.211,0.553-4.42,1.112-6.629,1.67  c-3.608,0.91-7.215,1.824-10.819,2.748c-2.323,0.595-4.643,1.194-6.963,1.794c-3.524,0.912-7.045,1.829-10.564,2.753  c-2.313,0.607-4.625,1.215-6.936,1.828c-3.589,0.952-7.175,1.912-10.759,2.876c-2.204,0.593-4.409,1.183-6.612,1.781  c-3.901,1.059-7.797,2.129-11.692,3.203c-1.86,0.513-3.722,1.02-5.581,1.536c-11.482,3.188-22.937,6.442-34.365,9.76  c-1.84,0.534-3.677,1.077-5.516,1.615c-3.878,1.134-7.755,2.271-11.626,3.42c-2.18,0.646-4.357,1.301-6.536,1.952  c-3.545,1.061-7.087,2.125-10.627,3.197c-2.281,0.691-4.561,1.387-6.841,2.084c-3.453,1.056-6.903,2.117-10.351,3.185  c-2.288,0.708-4.575,1.417-6.86,2.131c-3.508,1.095-7.011,2.198-10.514,3.306c-2.18,0.689-4.361,1.376-6.539,2.07  c-3.819,1.217-7.633,2.445-11.445,3.677c-1.836,0.593-3.675,1.181-5.51,1.777c-5.635,1.832-11.264,3.676-16.885,5.54h-0.001  c-5.618,1.863-11.228,3.744-16.832,5.638c-1.834,0.62-3.664,1.248-5.496,1.872c-3.782,1.287-7.563,2.575-11.339,3.876  c-2.155,0.743-4.307,1.492-6.459,2.239c-3.456,1.199-6.911,2.402-10.361,3.613c-2.26,0.793-4.517,1.591-6.774,2.389  c-3.375,1.193-6.746,2.393-10.116,3.598c-2.249,0.805-4.498,1.61-6.745,2.42c-3.433,1.237-6.862,2.482-10.29,3.731  c-2.148,0.783-4.296,1.563-6.442,2.35c-3.73,1.369-7.454,2.749-11.177,4.132c-1.817,0.675-3.636,1.344-5.452,2.022  c-5.464,2.041-10.922,4.095-16.372,6.167c-0.118,0.045-0.237,0.09-0.355,0.135c-5.445,2.07-10.881,4.158-16.312,6.259  c-1.817,0.703-3.629,1.414-5.445,2.12c-3.687,1.434-7.372,2.871-11.052,4.319c-2.129,0.838-4.255,1.683-6.382,2.525  c-3.367,1.333-6.733,2.67-10.094,4.016c-2.23,0.893-4.458,1.789-6.686,2.687c-3.289,1.326-6.575,2.656-9.859,3.993  c-2.218,0.903-4.436,1.807-6.651,2.715c-3.349,1.372-6.694,2.753-10.037,4.137c-2.116,0.876-4.234,1.75-6.348,2.63  c-3.632,1.513-7.258,3.038-10.883,4.564c-1.8,0.758-3.602,1.511-5.4,2.271c-5.334,2.259-10.661,4.529-15.98,6.817  c-0.142,0.061-0.284,0.123-0.427,0.184c-5.315,2.287-10.621,4.591-15.921,6.907c-1.797,0.785-3.589,1.579-5.385,2.368  c-3.585,1.575-7.17,3.153-10.748,4.741c-2.099,0.932-4.195,1.871-6.292,2.807c-3.285,1.467-6.569,2.938-9.848,4.417  c-2.184,0.984-4.365,1.973-6.546,2.963c-3.214,1.458-6.425,2.921-9.633,4.391c-2.176,0.996-4.351,1.993-6.524,2.994  c-3.27,1.507-6.536,3.022-9.801,4.54c-2.072,0.963-4.144,1.924-6.213,2.892c-3.552,1.662-7.098,3.334-10.642,5.009  c-1.761,0.832-3.524,1.659-5.283,2.494c-5.179,2.459-10.351,4.931-15.514,7.417c-0.209,0.101-0.419,0.202-0.628,0.303  c-5.157,2.485-10.305,4.987-15.445,7.5c-1.765,0.863-3.526,1.734-5.289,2.601c-3.499,1.719-6.998,3.441-10.49,5.173  c-2.05,1.017-4.097,2.041-6.145,3.062c-3.206,1.599-6.409,3.201-9.609,4.812c-2.142,1.078-4.281,2.159-6.42,3.242  c-3.126,1.582-6.249,3.17-9.37,4.763c-2.14,1.093-4.279,2.186-6.415,3.283c-3.17,1.628-6.336,3.264-9.5,4.902  c-2.047,1.06-4.094,2.118-6.139,3.183c-3.442,1.792-6.877,3.595-10.311,5.4c-1.74,0.914-3.482,1.824-5.22,2.741  c-5.002,2.642-9.996,5.295-14.982,7.963c-0.305,0.163-0.611,0.327-0.916,0.49c-4.981,2.668-9.953,5.351-14.917,8.045  c-1.733,0.94-3.46,1.889-5.191,2.833c-3.399,1.854-6.797,3.709-10.189,5.575c-2.012,1.107-4.021,2.221-6.031,3.333  c-3.117,1.724-6.233,3.451-9.343,5.186c-2.093,1.167-4.183,2.338-6.273,3.51c-3.043,1.707-6.083,3.418-9.12,5.135  c-2.089,1.181-4.178,2.363-6.265,3.549c-3.09,1.757-6.176,3.521-9.26,5.287c-1.994,1.143-3.99,2.283-5.981,3.43  c-3.35,1.929-6.693,3.869-10.034,5.81c-1.702,0.989-3.407,1.973-5.107,2.965c-4.863,2.838-9.718,5.688-14.564,8.551  c-0.315,0.186-0.63,0.372-0.945,0.559c-4.843,2.864-9.676,5.743-14.502,8.633c-1.693,1.014-3.381,2.036-5.073,3.053  c-3.303,1.987-6.604,3.975-9.898,5.974c-1.968,1.193-3.931,2.394-5.895,3.591c-3.027,1.846-6.053,3.694-9.073,5.55  c-2.041,1.254-4.079,2.512-6.117,3.771c-2.958,1.827-5.913,3.66-8.865,5.497c-2.038,1.268-4.074,2.537-6.109,3.81  c-3.005,1.88-6.004,3.767-9.002,5.657c-1.94,1.223-3.881,2.444-5.818,3.672c-3.252,2.061-6.498,4.131-9.742,6.204  c-1.665,1.064-3.333,2.123-4.996,3.19c-4.704,3.019-9.4,6.048-14.087,9.091c-0.349,0.227-0.698,0.453-1.047,0.68  c-4.687,3.046-9.365,6.106-14.035,9.178c-1.65,1.085-3.294,2.178-4.941,3.266c-3.206,2.117-6.41,4.236-9.608,6.366  c-1.916,1.276-3.828,2.558-5.741,3.838c-2.935,1.963-5.868,3.93-8.796,5.904c-1.99,1.342-3.978,2.687-5.964,4.033  c-2.868,1.943-5.733,3.891-8.594,5.844c-1.981,1.352-3.962,2.705-5.94,4.062c-2.912,1.997-5.819,4.002-8.725,6.009  c-1.891,1.306-3.782,2.61-5.67,3.92c-3.15,2.188-6.294,4.384-9.436,6.583c-1.622,1.136-3.248,2.267-4.869,3.405  c-4.535,3.187-9.061,6.384-13.578,9.594c-0.399,0.284-0.798,0.567-1.197,0.851c-4.515,3.213-9.021,6.438-13.518,9.674  c-1.61,1.159-3.215,2.326-4.823,3.488c-3.1,2.24-6.199,4.482-9.29,6.733c-1.86,1.355-3.716,2.716-5.573,4.075  c-2.847,2.083-5.691,4.168-8.53,6.26c-1.927,1.42-3.852,2.844-5.776,4.269c-2.781,2.06-5.559,4.124-8.333,6.193  c-1.92,1.432-3.839,2.864-5.755,4.3c-2.822,2.115-5.638,4.237-8.453,6.361c-1.834,1.385-3.67,2.768-5.501,4.156  c-3.042,2.307-6.076,4.623-9.109,6.941c-1.581,1.208-3.166,2.413-4.745,3.624c-4.409,3.383-8.81,6.777-13.2,10.184  c-0.348,0.27-0.695,0.54-1.043,0.809c-4.392,3.411-8.773,6.833-13.146,10.268c-1.557,1.222-3.107,2.452-4.661,3.677  c-3.002,2.367-6.003,4.735-8.996,7.113c-1.805,1.434-3.605,2.874-5.407,4.312c-2.744,2.19-5.486,4.383-8.223,6.582  c-1.874,1.506-3.745,3.016-5.615,4.526c-2.682,2.166-5.36,4.336-8.034,6.51c-1.862,1.514-3.723,3.029-5.582,4.547  c-2.719,2.221-5.432,4.449-8.143,6.679c-1.784,1.468-3.569,2.934-5.35,4.405c-2.934,2.425-5.861,4.859-8.786,7.295  c-1.529,1.273-3.062,2.542-4.588,3.818c-4.228,3.535-8.447,7.08-12.656,10.636c-0.404,0.341-0.808,0.683-1.212,1.025  c-4.204,3.557-8.398,7.125-12.583,10.704c-1.515,1.296-3.024,2.599-4.537,3.897c-2.886,2.478-5.771,4.958-8.648,7.446  c-1.747,1.511-3.489,3.028-5.233,4.543c-2.644,2.297-5.286,4.597-7.921,6.903c-1.812,1.585-3.622,3.174-5.43,4.764  c-2.582,2.27-5.161,4.544-7.736,6.823c-1.8,1.593-3.599,3.187-5.396,4.784c-2.62,2.33-5.234,4.666-7.846,7.004  c-1.719,1.539-3.44,3.077-5.155,4.62c-2.825,2.541-5.643,5.091-8.459,7.642c-1.48,1.341-2.964,2.678-4.442,4.022  c-4.124,3.751-8.239,7.512-12.343,11.286c-0.285,0.262-0.57,0.524-0.854,0.786c-4.104,3.776-8.196,7.564-12.279,11.363  c-1.458,1.356-2.909,2.719-4.364,4.078c-2.781,2.597-5.56,5.195-8.331,7.802c-1.68,1.581-3.355,3.167-5.031,4.751  c-2.547,2.406-5.091,4.815-7.63,7.231c-1.743,1.659-3.484,3.32-5.223,4.983c-2.481,2.372-4.959,4.748-7.432,7.128  c-1.736,1.671-3.471,3.342-5.203,5.017c-2.52,2.437-5.034,4.879-7.546,7.324c-1.65,1.606-3.301,3.21-4.947,4.82  c-2.723,2.662-5.437,5.333-8.149,8.005c-1.417,1.396-2.837,2.787-4.251,4.185c-3.911,3.867-7.812,7.745-11.703,11.633  c-0.38,0.38-0.761,0.761-1.141,1.141c-3.888,3.89-7.765,7.792-11.633,11.702c-1.398,1.414-2.79,2.834-4.185,4.251  c-2.672,2.712-5.343,5.426-8.005,8.149c-1.61,1.646-3.214,3.297-4.82,4.947c-2.446,2.513-4.889,5.027-7.326,7.548  c-1.672,1.729-3.34,3.461-5.007,5.193c-2.386,2.48-4.769,4.964-7.147,7.452c-1.656,1.732-3.311,3.466-4.964,5.202  c-2.421,2.545-4.836,5.096-7.249,7.648c-1.581,1.673-3.164,3.344-4.741,5.021c-2.612,2.776-5.215,5.561-7.817,8.347  c-1.352,1.448-2.709,2.893-4.058,4.343c-3.775,4.058-7.539,8.125-11.292,12.203c-0.312,0.34-0.625,0.679-0.937,1.019  c-3.75,4.078-7.488,8.167-11.215,12.266c-1.334,1.467-2.661,2.939-3.992,4.409c-2.562,2.828-5.122,5.656-7.673,8.493  c-1.536,1.708-3.066,3.42-4.598,5.132c-2.346,2.62-4.69,5.243-7.027,7.872c-1.591,1.79-3.179,3.582-4.766,5.375  c-2.284,2.581-4.564,5.166-6.84,7.754c-1.587,1.806-3.174,3.612-4.757,5.422c-2.306,2.636-4.606,5.277-6.903,7.921  c-1.516,1.744-3.033,3.487-4.544,5.234c-2.493,2.882-4.977,5.772-7.459,8.663c-1.293,1.506-2.59,3.008-3.88,4.516  c-3.603,4.213-7.197,8.436-10.778,12.669c-0.297,0.351-0.594,0.703-0.892,1.054c-3.579,4.234-7.145,8.479-10.701,12.733  c-1.273,1.522-2.538,3.051-3.808,4.576c-2.441,2.931-4.88,5.864-7.31,8.804c-1.469,1.777-2.932,3.559-4.396,5.339  c-2.231,2.712-4.46,5.426-6.682,8.146c-1.519,1.859-3.034,3.721-4.549,5.584c-2.175,2.675-4.346,5.354-6.513,8.037  c-1.507,1.867-3.014,3.734-4.517,5.604c-2.203,2.741-4.4,5.488-6.594,8.237c-1.436,1.799-2.874,3.597-4.306,5.4  c-2.381,2.997-4.752,6.001-7.122,9.007c-1.221,1.548-2.446,3.093-3.664,4.644c-3.456,4.401-6.901,8.811-10.333,13.23  c-0.229,0.294-0.458,0.589-0.686,0.884c-3.429,4.418-6.844,8.848-10.249,13.285c-1.206,1.572-2.405,3.15-3.609,4.725  c-2.322,3.038-4.642,6.077-6.952,9.124c-1.389,1.831-2.772,3.667-4.156,5.501c-2.125,2.815-4.247,5.632-6.362,8.455  c-1.434,1.913-2.864,3.829-4.293,5.745c-2.072,2.778-4.14,5.561-6.203,8.347c-1.423,1.922-2.846,3.845-4.264,5.77  c-2.093,2.84-4.179,5.686-6.263,8.533c-1.357,1.854-2.715,3.707-4.068,5.564c-2.259,3.102-4.508,6.211-6.756,9.321  c-1.154,1.598-2.313,3.192-3.465,4.792c-3.256,4.524-6.501,9.058-9.733,13.601c-0.247,0.348-0.495,0.695-0.742,1.043  c-3.23,4.544-6.447,9.098-9.652,13.66c-1.135,1.616-2.263,3.236-3.395,4.854c-2.201,3.145-4.399,6.291-6.588,9.443  c-1.309,1.886-2.613,3.776-3.918,5.666c-2.011,2.91-4.018,5.822-6.019,8.739c-1.352,1.971-2.701,3.945-4.048,5.92  c-1.958,2.868-3.91,5.74-5.859,8.616c-1.342,1.98-2.683,3.962-4.02,5.945c-1.979,2.936-3.951,5.876-5.92,8.819  c-1.275,1.906-2.552,3.811-3.823,5.719c-2.131,3.201-4.253,6.409-6.373,9.619c-1.088,1.647-2.18,3.291-3.265,4.939  c-3.086,4.692-6.161,9.393-9.222,14.103c-0.196,0.301-0.391,0.602-0.586,0.902c-3.06,4.713-6.107,9.436-9.142,14.166  c-1.064,1.659-2.121,3.323-3.182,4.984c-2.073,3.245-4.145,6.492-6.207,9.746c-1.23,1.941-2.454,3.887-3.68,5.831  c-1.887,2.993-3.771,5.988-5.649,8.988c-1.275,2.038-2.547,4.079-3.817,6.12c-1.836,2.949-3.666,5.902-5.492,8.857  c-1.258,2.037-2.515,4.074-3.768,6.113c-1.86,3.027-3.713,6.059-5.562,9.093c-1.194,1.958-2.389,3.914-3.578,5.874  c-2.005,3.305-3.999,6.616-5.992,9.929c-1.011,1.681-2.028,3.36-3.036,5.043c-2.905,4.851-5.799,9.709-8.678,14.578  c-0.158,0.268-0.317,0.536-0.475,0.804c-2.879,4.871-5.743,9.751-8.596,14.64c-0.986,1.69-1.965,3.386-2.948,5.078  c-1.947,3.352-3.892,6.705-5.827,10.064c-1.143,1.984-2.28,3.973-3.418,5.96c-1.771,3.091-3.54,6.185-5.301,9.283  c-1.181,2.078-2.358,4.158-3.534,6.239c-1.723,3.048-3.441,6.099-5.153,9.153c-1.167,2.081-2.333,4.163-3.495,6.247  c-1.74,3.121-3.473,6.246-5.202,9.373c-1.106,2-2.214,3.998-3.315,6c-1.876,3.411-3.742,6.828-5.606,10.246  c-0.933,1.712-1.872,3.421-2.802,5.135c-2.721,5.013-5.43,10.033-8.123,15.062c-0.116,0.216-0.232,0.433-0.347,0.649  c-2.694,5.033-5.372,10.075-8.039,15.125c-0.908,1.72-1.808,3.444-2.713,5.166c-1.815,3.453-3.628,6.907-5.43,10.367  c-1.058,2.031-2.109,4.066-3.163,6.1c-1.646,3.178-3.289,6.357-4.924,9.541c-1.091,2.126-2.179,4.254-3.266,6.382  c-1.599,3.132-3.193,6.268-4.782,9.407c-1.077,2.128-2.153,4.256-3.226,6.387c-1.614,3.207-3.22,6.419-4.823,9.633  c-1.021,2.045-2.043,4.09-3.059,6.138c-1.734,3.496-3.457,6.998-5.178,10.5c-0.863,1.756-1.73,3.509-2.59,5.266  c-2.536,5.186-5.059,10.378-7.566,15.581c-0.06,0.126-0.121,0.251-0.182,0.377c-2.509,5.208-5.001,10.424-7.481,15.648  c-0.827,1.742-1.646,3.488-2.47,5.232c-1.683,3.562-3.364,7.125-5.033,10.694c-0.962,2.058-1.918,4.118-2.876,6.178  c-1.524,3.277-3.045,6.556-4.557,9.839c-0.996,2.163-1.989,4.328-2.981,6.493c-1.474,3.22-2.943,6.442-4.406,9.667  c-0.985,2.171-1.969,4.342-2.949,6.516c-1.484,3.292-2.96,6.587-4.433,9.885c-0.931,2.085-1.865,4.169-2.792,6.257  c-1.596,3.595-3.181,7.196-4.763,10.798c-0.782,1.779-1.568,3.555-2.347,5.336c-2.315,5.297-4.618,10.601-6.904,15.914  c-0.066,0.153-0.132,0.307-0.198,0.46c-2.286,5.315-4.556,10.64-6.813,15.971c-0.755,1.782-1.501,3.569-2.252,5.353  c-1.533,3.641-3.064,7.283-4.584,10.931c-0.876,2.103-1.745,4.209-2.617,6.315c-1.389,3.355-2.774,6.711-4.151,10.072  c-0.904,2.206-1.804,4.414-2.703,6.623c-1.341,3.294-2.676,6.591-4.006,9.891c-0.894,2.218-1.787,4.437-2.676,6.658  c-1.35,3.373-2.691,6.75-4.03,10.128c-0.838,2.117-1.679,4.232-2.513,6.351c-1.455,3.698-2.899,7.402-4.341,11.108  c-0.699,1.795-1.402,3.589-2.098,5.386c-2.123,5.487-4.233,10.98-6.325,16.483c-0.005,0.013-0.01,0.026-0.015,0.039  c-2.093,5.504-4.167,11.017-6.229,16.537c-0.673,1.801-1.337,3.606-2.007,5.409c-1.388,3.738-2.774,7.477-4.148,11.221  c-0.784,2.135-1.56,4.274-2.339,6.412c-1.253,3.438-2.502,6.877-3.743,10.321c-0.807,2.238-1.609,4.479-2.411,6.72  c-1.208,3.378-2.411,6.76-3.608,10.144c-0.795,2.249-1.59,4.498-2.38,6.749c-1.215,3.461-2.421,6.926-3.624,10.392  c-0.744,2.144-1.49,4.286-2.229,6.431c-1.307,3.792-2.601,7.59-3.893,11.389c-0.617,1.815-1.24,3.627-1.854,5.444  c-3.791,11.216-7.519,22.461-11.184,33.735c-0.592,1.822-1.176,3.648-1.765,5.472c-1.236,3.826-2.469,7.653-3.69,11.485  c-0.691,2.167-1.374,4.338-2.06,6.507c-1.111,3.514-2.219,7.031-3.318,10.551c-0.71,2.276-1.417,4.553-2.122,6.832  c-1.07,3.457-2.134,6.916-3.193,10.378c-0.695,2.272-1.388,4.544-2.077,6.818c-1.076,3.549-2.143,7.103-3.206,10.657  c-0.648,2.167-1.299,4.334-1.943,6.503c-1.154,3.889-2.296,7.784-3.435,11.68c-0.533,1.821-1.071,3.64-1.6,5.463  c-3.32,11.434-6.575,22.896-9.765,34.384c-0.511,1.842-1.014,3.688-1.522,5.531c-1.078,3.912-2.154,7.824-3.217,11.742  c-0.595,2.193-1.183,4.388-1.773,6.583c-0.967,3.594-1.93,7.189-2.883,10.788c-0.61,2.302-1.216,4.607-1.821,6.911  c-0.927,3.529-1.847,7.061-2.761,10.595c-0.598,2.311-1.195,4.622-1.787,6.934c-0.926,3.615-1.843,7.234-2.756,10.854  c-0.555,2.198-1.112,4.396-1.662,6.597c-0.994,3.979-1.976,7.963-2.955,11.948c-0.45,1.83-0.905,3.658-1.351,5.49  c-2.837,11.643-5.608,23.312-8.312,35.007c-0.426,1.842-0.843,3.687-1.265,5.529c-0.919,4.009-1.835,8.02-2.739,12.035  c-0.497,2.208-0.987,4.42-1.479,6.63c-0.819,3.678-1.634,7.358-2.44,11.042c-0.507,2.319-1.011,4.64-1.513,6.962  c-0.781,3.611-1.556,7.225-2.325,10.841c-0.495,2.328-0.988,4.656-1.478,6.985c-0.776,3.694-1.543,7.391-2.305,11.089  c-0.458,2.22-0.918,4.44-1.371,6.662c-0.827,4.054-1.641,8.113-2.451,12.173c-0.37,1.852-0.745,3.702-1.112,5.556  c-2.34,11.835-4.613,23.695-6.817,35.578c-0.342,1.845-0.675,3.693-1.014,5.54c-0.753,4.1-1.502,8.201-2.238,12.307  c-0.399,2.225-0.791,4.452-1.185,6.678c-0.664,3.747-1.323,7.496-1.973,11.248c-0.408,2.354-0.811,4.709-1.213,7.064  c-0.627,3.673-1.248,7.348-1.862,11.025c-0.392,2.349-0.784,4.699-1.171,7.05c-0.621,3.772-1.233,7.548-1.84,11.325  c-0.359,2.234-0.721,4.467-1.075,6.702c-0.657,4.147-1.302,8.298-1.942,12.45c-0.285,1.846-0.576,3.689-0.857,5.536  c-1.833,12.022-3.596,24.066-5.289,36.133c-0.26,1.851-0.51,3.705-0.766,5.557c-0.579,4.181-1.154,8.363-1.716,12.549  c-0.301,2.239-0.594,4.48-0.889,6.721c-0.505,3.823-1.005,7.648-1.496,11.477c-0.303,2.362-0.601,4.725-0.898,7.088  c-0.472,3.753-0.937,7.508-1.396,11.265c-0.288,2.363-0.576,4.726-0.859,7.09c-0.46,3.842-0.91,7.686-1.355,11.532  c-0.261,2.249-0.524,4.496-0.779,6.747c-0.479,4.217-0.945,8.438-1.407,12.66c-0.204,1.864-0.414,3.726-0.615,5.591  c-3.37,31.32-6.267,62.781-8.688,94.376c-0.112,1.465-0.221,2.931-0.331,4.397c-0.352,4.683-0.694,9.368-1.025,14.056  c-0.102,1.45-0.206,2.9-0.307,4.35c-0.446,6.452-0.874,12.909-1.28,19.372c-0.434,6.904-0.843,13.815-1.232,20.732  c-0.144,2.563-0.277,5.128-0.414,7.693c-0.267,4.967-0.524,9.936-0.768,14.909c-0.138,2.829-0.273,5.659-0.403,8.49  c-0.229,4.955-0.443,9.914-0.648,14.875c-0.108,2.602-0.22,5.202-0.321,7.805c-0.269,6.93-0.518,13.865-0.741,20.807  c-0.63,19.59-1.075,39.227-1.336,58.908c-0.023,1.714-0.041,3.429-0.061,5.144c-0.052,4.436-0.094,8.873-0.126,13.313  c-0.013,1.758-0.028,3.515-0.038,5.273c-0.034,5.959-0.057,11.921-0.057,17.888c0,6.934,0.026,13.862,0.072,20.785  c0.015,2.293,0.045,4.582,0.065,6.874c0.041,4.63,0.082,9.261,0.144,13.886c0.036,2.73,0.086,5.458,0.13,8.186  c0.066,4.188,0.133,8.375,0.216,12.559c0.058,2.899,0.127,5.795,0.193,8.693c0.091,4.009,0.184,8.016,0.29,12.021  c0.079,2.983,0.167,5.964,0.255,8.945c0.115,3.926,0.235,7.85,0.365,11.772c0.1,3.007,0.206,6.012,0.314,9.018  c0.141,3.904,0.289,7.806,0.444,11.706c0.12,2.999,0.242,5.996,0.37,8.992c0.167,3.915,0.344,7.826,0.526,11.737  c0.138,2.968,0.276,5.936,0.423,8.901c0.196,3.967,0.404,7.931,0.615,11.894c0.023,0.435,0.047,0.87,0.07,1.305  c0.133,2.483,0.262,4.968,0.401,7.45c0.228,4.067,0.471,8.131,0.715,12.194c0.165,2.755,0.325,5.511,0.498,8.264  c0.278,4.424,0.573,8.844,0.87,13.263c0.16,2.394,0.312,4.79,0.478,7.183c0.391,5.635,0.803,11.265,1.224,16.893  c0.052,0.7,0.103,1.401,0.153,2.102c0.036,0.483,0.069,0.967,0.106,1.45c0.517,6.813,1.059,13.619,1.621,20.42  c0.141,1.711,0.294,3.417,0.439,5.127c0.011,0.133,0.023,0.265,0.034,0.398c0.417,4.944,0.838,9.885,1.279,14.822  c0.236,2.645,0.487,5.286,0.729,7.929c0.378,4.115,0.756,8.23,1.151,12.341c0.268,2.791,0.548,5.578,0.823,8.367  c0.396,4.012,0.793,8.023,1.205,12.031c0.291,2.832,0.591,5.662,0.89,8.492c0.416,3.942,0.835,7.883,1.266,11.821  c0.313,2.865,0.633,5.727,0.955,8.59c0.438,3.904,0.883,7.807,1.335,11.707c0.333,2.869,0.67,5.736,1.011,8.602  c0.464,3.903,0.937,7.803,1.416,11.702c0.349,2.84,0.699,5.679,1.055,8.516c0.493,3.926,0.998,7.848,1.506,11.768  c0.364,2.808,0.726,5.617,1.098,8.423c0.539,4.069,1.092,8.135,1.647,12.199c0.356,2.611,0.708,5.223,1.071,7.832  c0.605,4.353,1.229,8.701,1.852,13.05c0.258,1.801,0.512,3.603,0.773,5.402c0.076,0.525,0.149,1.052,0.226,1.576  c0.763,5.232,1.546,10.458,2.336,15.681c0.217,1.433,0.425,2.868,0.643,4.301c1.026,6.728,2.074,13.448,3.144,20.161  c0.132,0.831,0.271,1.66,0.405,2.491c0.932,5.814,1.876,11.624,2.84,17.427c0.344,2.069,0.7,4.135,1.048,6.202  c0.768,4.564,1.538,9.126,2.326,13.683c0.42,2.428,0.851,4.853,1.277,7.28c0.736,4.195,1.474,8.389,2.227,12.577  c0.464,2.583,0.938,5.162,1.408,7.742c0.735,4.032,1.474,8.062,2.225,12.089c0.495,2.653,0.997,5.304,1.498,7.955  c0.75,3.964,1.506,7.925,2.272,11.884c0.514,2.66,1.033,5.318,1.554,7.975c0.777,3.963,1.563,7.923,2.355,11.88  c0.526,2.628,1.054,5.255,1.587,7.88c0.815,4.014,1.64,8.025,2.471,12.033c0.528,2.549,1.055,5.098,1.589,7.644  c0.868,4.134,1.748,8.264,2.633,12.392c0.515,2.407,1.027,4.815,1.548,7.22c0.957,4.415,1.93,8.824,2.906,13.233  c0.464,2.098,0.922,4.199,1.391,6.295c1.149,5.139,2.317,10.271,3.491,15.4c0.312,1.361,0.616,2.725,0.93,4.086  c3.029,13.145,6.143,26.258,9.341,39.338c0.341,1.396,0.692,2.788,1.035,4.184c1.247,5.07,2.501,10.138,3.773,15.199  c0.502,1.995,1.013,3.986,1.518,5.979c1.131,4.46,2.266,8.919,3.416,13.372c0.577,2.233,1.163,4.463,1.745,6.694  c1.1,4.218,2.204,8.434,3.322,12.645c0.618,2.329,1.243,4.656,1.867,6.983c1.103,4.117,2.212,8.231,3.332,12.342  c0.644,2.364,1.292,4.727,1.942,7.089c1.124,4.087,2.256,8.17,3.396,12.25c0.655,2.345,1.313,4.689,1.973,7.032  c1.163,4.123,2.336,8.241,3.516,12.357c0.652,2.273,1.302,4.546,1.959,6.817c1.228,4.248,2.469,8.49,3.716,12.73  c0.622,2.116,1.241,4.234,1.867,6.349c1.339,4.521,2.694,9.035,4.054,13.547c0.548,1.819,1.091,3.641,1.643,5.459  c1.567,5.166,3.152,10.324,4.745,15.479c0.356,1.152,0.706,2.307,1.064,3.458c4.005,12.901,8.092,25.767,12.263,38.595  c0.079,0.242,0.159,0.483,0.238,0.725c1.964,6.038,3.947,12.067,5.948,18.088c0.458,1.377,0.923,2.751,1.383,4.127  c1.632,4.889,3.272,9.775,4.928,14.653c0.604,1.779,1.215,3.554,1.823,5.332c1.532,4.485,3.07,8.968,4.622,13.443  c0.673,1.941,1.352,3.879,2.029,5.818c1.508,4.319,3.022,8.635,4.548,12.945c0.712,2.01,1.428,4.019,2.144,6.027  c1.515,4.249,3.038,8.494,4.57,12.734c0.728,2.012,1.457,4.024,2.189,6.035c1.556,4.276,3.122,8.547,4.696,12.813  c0.714,1.936,1.428,3.871,2.146,5.804c1.632,4.396,3.277,8.786,4.928,13.172c0.671,1.782,1.339,3.564,2.013,5.345  c1.765,4.66,3.544,9.313,5.331,13.963c0.572,1.489,1.14,2.979,1.714,4.467c2.026,5.248,4.069,10.486,6.123,15.72  c0.343,0.875,0.682,1.752,1.027,2.627c1.478,3.755,2.968,7.504,4.461,11.252c0.499,1.254,0.996,2.51,1.497,3.764  c1.444,3.614,2.898,7.224,4.355,10.831c0.601,1.487,1.203,2.973,1.806,4.459c1.452,3.577,2.908,7.152,4.373,10.722  c0.544,1.326,1.093,2.65,1.639,3.976c1.509,3.663,3.019,7.325,4.542,10.981c0.229,0.55,0.462,1.098,0.691,1.648  c2.301,5.515,4.616,11.022,6.948,16.52c0.511,1.204,1.027,2.405,1.539,3.608c2.063,4.848,4.135,9.69,6.223,14.524  c0.645,1.494,1.295,2.985,1.942,4.478c1.978,4.56,3.964,9.115,5.963,13.664c0.707,1.608,1.418,3.215,2.127,4.822  c1.962,4.442,3.932,8.88,5.914,13.312c0.735,1.644,1.472,3.287,2.21,4.929c1.991,4.431,3.993,8.857,6.005,13.277  c0.723,1.587,1.445,3.175,2.17,4.761c2.073,4.534,4.158,9.061,6.252,13.582c0.668,1.441,1.333,2.884,2.003,4.324  c2.222,4.778,4.459,9.549,6.705,14.314c0.548,1.163,1.093,2.327,1.642,3.489c2.514,5.316,5.044,10.624,7.588,15.923  c0.284,0.593,0.566,1.187,0.85,1.779c11.605,24.139,23.516,48.104,35.729,71.887c0.118,0.229,0.236,0.458,0.354,0.687  c0.206,0.402,0.415,0.802,0.621,1.204c2.661,5.174,5.335,10.341,8.025,15.498c0.539,1.034,1.082,2.065,1.623,3.098  c2.497,4.776,5.005,9.543,7.527,14.305c0.664,1.254,1.332,2.506,1.998,3.759c2.422,4.557,4.854,9.106,7.298,13.65  c0.753,1.399,1.508,2.798,2.263,4.196c2.356,4.363,4.723,8.719,7.099,13.07c0.836,1.531,1.673,3.062,2.512,4.591  c2.333,4.253,4.677,8.499,7.03,12.739c0.843,1.521,1.685,3.042,2.531,4.56c2.399,4.306,4.81,8.605,7.229,12.899  c0.779,1.382,1.554,2.766,2.335,4.147c2.627,4.647,5.269,9.285,7.919,13.916c0.577,1.007,1.149,2.018,1.727,3.024  c4.027,7.018,8.081,14.02,12.161,21.003c0.203,0.347,0.407,0.692,0.61,1.039c3.747,6.406,7.519,12.796,11.311,19.173  c0.624,1.048,1.247,2.097,1.872,3.145c8.165,13.694,16.43,27.322,24.801,40.878c0.61,0.988,1.225,1.973,1.836,2.961  c2.832,4.574,5.672,9.141,8.528,13.699c0.722,1.153,1.448,2.304,2.172,3.456c2.769,4.408,5.547,8.808,8.338,13.2  c0.825,1.298,1.652,2.595,2.478,3.892c2.728,4.279,5.465,8.552,8.214,12.816c0.792,1.229,1.585,2.458,2.379,3.687  c2.816,4.356,5.643,8.704,8.48,13.044c0.752,1.15,1.503,2.301,2.257,3.451c2.934,4.475,5.881,8.941,8.837,13.4  c0.646,0.975,1.29,1.951,1.938,2.925c3.18,4.783,6.373,9.556,9.578,14.319c0.451,0.67,0.9,1.343,1.351,2.013  c2.093,3.106,4.196,6.205,6.301,9.303c0.984,1.449,1.968,2.899,2.955,4.346c2.068,3.034,4.142,6.063,6.221,9.089  c0.972,1.415,1.946,2.827,2.92,4.24c2.159,3.131,4.32,6.262,6.491,9.385c0.551,0.792,1.105,1.583,1.657,2.375  c7.607,10.923,15.283,21.794,23.027,32.613c0.744,1.039,1.486,2.08,2.231,3.118c2.32,3.232,4.647,6.459,6.979,9.682  c0.8,1.105,1.601,2.21,2.402,3.315c2.399,3.307,4.803,6.611,7.215,9.908c0.569,0.778,1.142,1.554,1.712,2.332  c3.328,4.54,6.667,9.07,10.019,13.591c0.597,0.806,1.197,1.61,1.795,2.415c3.366,4.529,6.743,9.05,10.133,13.56  c0.619,0.824,1.239,1.647,1.858,2.47c3.334,4.426,6.68,8.842,10.037,13.25c0.641,0.842,1.283,1.685,1.925,2.526  c3.505,4.591,7.022,9.172,10.552,13.742c0.462,0.599,0.923,1.198,1.385,1.796c3.3,4.267,6.611,8.522,9.933,12.771  c0.321,0.411,0.641,0.822,0.962,1.232c3.255,4.158,6.521,8.307,9.796,12.449c0.39,0.493,0.779,0.986,1.17,1.479  c3.224,4.071,6.459,8.134,9.703,12.188c0.449,0.562,0.898,1.123,1.348,1.684c3.21,4.006,6.431,8.004,9.661,11.994  c0.48,0.593,0.96,1.185,1.44,1.777c3.219,3.971,6.448,7.934,9.687,11.888c0.484,0.591,0.969,1.182,1.454,1.772  c3.258,3.972,6.524,7.936,9.802,11.891c0.442,0.534,0.886,1.066,1.328,1.6c3.335,4.019,6.679,8.031,10.034,12.033  c0.354,0.422,0.709,0.843,1.063,1.265c3.458,4.12,6.924,8.232,10.404,12.333c0.203,0.239,0.406,0.478,0.609,0.716  c3.994,4.706,8.002,9.398,12.023,14.08c0.522,0.607,1.045,1.213,1.568,1.821c3.78,4.392,7.571,8.775,11.376,13.145  c0.517,0.594,1.034,1.187,1.551,1.78c3.907,4.482,7.826,8.952,11.758,13.411c0.438,0.497,0.876,0.994,1.315,1.491  c4.015,4.547,8.044,9.083,12.086,13.605c0.306,0.343,0.612,0.686,0.918,1.028c35.485,39.676,71.986,78.422,109.461,116.202  c0.242,0.244,0.484,0.487,0.726,0.731c4.409,4.443,8.833,8.871,13.27,13.287c0.347,0.345,0.694,0.689,1.04,1.034  c4.351,4.326,8.714,8.639,13.091,12.939c0.193,0.189,0.385,0.378,0.578,0.567c0.12,0.118,0.24,0.236,0.36,0.353  C933.56,5261.735,938.089,5266.154,942.632,5270.559z" enable-background="new    " fill="#101111" opacity="0.15"/><circle cx="2955.072" cy="2412.229" fill="#DBB56A" r="600"/><path d="M3365.172,2854.19c-91.83-93.4-193.416-165.285-267.957-224.488  c89.587-51.893,157.856-156.79,157.856-267.77c0-165.686-134.314-300-300-300s-300,134.314-300,300  c0,115.288,65.043,215.369,160.425,265.598c-74.214,58.423-169.329,138.778-263.19,233.423  c106.477,96.49,247.755,155.276,402.766,155.276C3113.67,3016.229,3257.891,2954.688,3365.172,2854.19z" fill="#565655"/></svg>