<?xml version="1.0" ?><!DOCTYPE svg  PUBLIC '-//W3C//DTD SVG 1.1//EN'  'http://www.w3.org/Graphics/SVG/1.1/DTD/svg11.dtd'><svg enable-background="new 0 0 6144 6144" height="6144px" id="Слой_1" version="1.1" viewBox="0 0 6144 6144" width="6144px" xml:space="preserve" xmlns="http://www.w3.org/2000/svg" xmlns:xlink="http://www.w3.org/1999/xlink"><circle cx="3073" cy="3095.995" fill="#88A381" r="3072"/><path d="M934.631,5277.559c0.199,0.193,0.398,0.386,0.597,0.579  c38.324,37.143,77.611,73.297,117.823,108.42c-471.677-540.024-757.439-1246.61-757.439-2019.946  c0-1696.619,1375.381-3072,3072-3072c773.336,0,1479.922,285.762,2019.948,757.439c0,0-0.001-0.001-0.002-0.002  c-35.122-40.21-71.274-79.496-108.416-117.819c-0.216-0.223-0.433-0.446-0.65-0.669c-4.382-4.518-8.778-9.023-13.188-13.515  c-0.099-0.101-0.198-0.202-0.297-0.303c-0.211-0.215-0.422-0.43-0.634-0.646c-4.292-4.369-8.598-8.724-12.916-13.067  c-0.352-0.354-0.704-0.708-1.056-1.062c-4.478-4.5-8.97-8.985-13.475-13.457c-0.141-0.14-0.282-0.28-0.423-0.42  c-37.821-37.52-76.612-74.063-116.332-109.589c-0.324-0.29-0.649-0.579-0.973-0.869c-4.563-4.078-9.137-8.14-13.724-12.191  c-0.464-0.41-0.929-0.819-1.393-1.229c-4.516-3.982-9.043-7.951-13.582-11.907c-0.479-0.417-0.957-0.834-1.436-1.251  c-4.625-4.025-9.261-8.038-13.91-12.036c-0.346-0.298-0.691-0.596-1.038-0.894c-4.77-4.099-9.552-8.184-14.348-12.254  c-0.211-0.179-0.421-0.359-0.632-0.538c-4.108-3.485-8.227-6.958-12.354-10.421c-0.426-0.357-0.851-0.716-1.276-1.073  c-3.993-3.348-7.997-6.685-12.007-10.013c-0.543-0.451-1.086-0.902-1.63-1.353c-3.943-3.267-7.895-6.523-11.854-9.771  c-0.604-0.496-1.208-0.992-1.812-1.487c-3.941-3.228-7.891-6.445-11.848-9.654c-0.606-0.491-1.211-0.982-1.818-1.473  c-3.979-3.221-7.966-6.433-11.961-9.634c-0.569-0.456-1.139-0.912-1.708-1.367c-4.052-3.243-8.112-6.476-12.181-9.698  c-0.484-0.384-0.969-0.767-1.454-1.15c-4.164-3.293-8.336-6.578-12.518-9.851c-0.359-0.281-0.718-0.561-1.077-0.841  c-4.307-3.368-8.622-6.726-12.948-10.071c-0.478-0.37-0.957-0.738-1.435-1.107c-4.762-3.679-9.536-7.345-14.321-10.996  c-0.566-0.432-1.132-0.863-1.699-1.294c-4.621-3.522-9.253-7.03-13.895-10.526c-0.789-0.594-1.578-1.188-2.367-1.782  c-4.453-3.347-8.917-6.682-13.389-10.006c-0.84-0.624-1.679-1.249-2.52-1.873c-4.582-3.398-9.175-6.782-13.776-10.155  c-0.713-0.523-1.425-1.048-2.139-1.57c-3.386-2.478-6.778-4.946-10.175-7.41c-0.976-0.708-1.952-1.416-2.929-2.123  c-3.347-2.422-6.698-4.839-10.055-7.248c-0.831-0.596-1.664-1.19-2.496-1.786c-11.289-8.083-22.633-16.093-34.035-24.027  c-0.402-0.28-0.802-0.561-1.204-0.84c-3.311-2.301-6.628-4.592-9.948-6.88c-1.212-0.835-2.423-1.671-3.636-2.504  c-3.161-2.172-6.325-4.338-9.494-6.498c-1.304-0.889-2.61-1.775-3.916-2.663c-3.208-2.18-6.417-4.357-9.634-6.525  c-0.49-0.33-0.981-0.658-1.471-0.987c-4.948-3.33-9.907-6.647-14.875-9.95c-0.769-0.511-1.539-1.019-2.308-1.529  c-4.714-3.126-9.436-6.242-14.168-9.343c-0.998-0.654-1.997-1.306-2.996-1.959c-4.471-2.923-8.949-5.835-13.437-8.736  c-1.098-0.709-2.196-1.418-3.294-2.126c-4.484-2.891-8.976-5.769-13.476-8.636c-1.056-0.673-2.112-1.347-3.169-2.019  c-4.634-2.944-9.276-5.876-13.927-8.796c-0.868-0.545-1.734-1.092-2.603-1.636c-5.021-3.146-10.05-6.276-15.09-9.395  c-0.531-0.328-1.061-0.659-1.591-0.986c-13.812-8.533-27.699-16.955-41.655-25.273c-0.775-0.462-1.551-0.924-2.327-1.385  c-13.935-8.289-27.938-16.476-42.014-24.549c-0.359-0.206-0.719-0.41-1.078-0.615c-5.313-3.044-10.635-6.073-15.966-9.086  c-0.851-0.481-1.705-0.959-2.556-1.439c-4.844-2.731-9.695-5.451-14.555-8.157c-1.117-0.622-2.236-1.241-3.354-1.861  c-4.628-2.569-9.263-5.127-13.906-7.673c-1.235-0.677-2.472-1.353-3.708-2.029c-4.562-2.493-9.13-4.975-13.705-7.445  c-1.268-0.685-2.535-1.369-3.803-2.051c-4.611-2.481-9.229-4.949-13.854-7.408c-0.207-0.11-0.413-0.219-0.62-0.329  c-1.014-0.539-2.027-1.079-3.042-1.617c-4.755-2.519-9.518-5.024-14.287-7.518c-1.05-0.549-2.097-1.101-3.147-1.648  c-5.11-2.666-10.23-5.315-15.357-7.953c-0.688-0.354-1.373-0.71-2.061-1.063c-23.772-12.207-47.725-24.112-71.851-35.71  c-0.179-0.086-0.359-0.172-0.538-0.257c-0.494-0.238-0.99-0.473-1.484-0.71c-5.218-2.503-10.444-4.996-15.679-7.471  c-1.163-0.55-2.328-1.095-3.491-1.643c-4.763-2.245-9.531-4.48-14.307-6.702c-0.298-0.139-0.598-0.276-0.896-0.415  c-1.162-0.54-2.326-1.078-3.489-1.616c-4.503-2.085-9.009-4.161-13.524-6.226c-1.586-0.725-3.174-1.447-4.762-2.17  c-4.42-2.012-8.846-4.014-13.277-6.005c-1.643-0.738-3.287-1.476-4.931-2.211c-4.425-1.979-8.857-3.947-13.293-5.906  c-1.617-0.714-3.232-1.429-4.851-2.14c-4.543-1.997-9.094-3.98-13.648-5.956c-1.494-0.648-2.987-1.299-4.482-1.944  c-4.825-2.083-9.658-4.151-14.496-6.211c-1.215-0.518-2.429-1.039-3.646-1.555c-5.494-2.33-10.997-4.644-16.507-6.942  c-0.551-0.23-1.101-0.463-1.652-0.693c-3.514-1.464-7.034-2.915-10.554-4.366c-1.528-0.63-3.055-1.262-4.584-1.89  c-3.399-1.395-6.803-2.781-10.209-4.164c-1.705-0.692-3.411-1.383-5.117-2.072c-3.441-1.39-6.884-2.777-10.332-4.155  c-1.441-0.576-2.884-1.147-4.326-1.721c-3.619-1.44-7.238-2.879-10.863-4.306c-0.877-0.345-1.756-0.685-2.633-1.029  c-5.229-2.052-10.462-4.093-15.705-6.117c-1.501-0.58-3.006-1.153-4.509-1.73c-4.635-1.781-9.274-3.556-13.92-5.314  c-1.792-0.679-3.587-1.352-5.38-2.027c-4.374-1.647-8.751-3.287-13.135-4.914c-1.943-0.722-3.889-1.439-5.833-2.157  c-4.261-1.572-8.525-3.136-12.795-4.689c-2.012-0.732-4.025-1.462-6.04-2.19c-4.234-1.53-8.473-3.051-12.715-4.563  c-2.019-0.719-4.037-1.439-6.057-2.154c-4.298-1.522-8.601-3.032-12.908-4.535c-1.951-0.681-3.9-1.364-5.853-2.042  c-4.47-1.55-8.947-3.086-13.426-4.616c-1.78-0.607-3.557-1.22-5.338-1.825c-4.878-1.656-9.764-3.295-14.653-4.928  c-1.376-0.459-2.75-0.925-4.127-1.382c-6.021-2.001-12.05-3.984-18.088-5.948c-0.242-0.079-0.483-0.159-0.725-0.238  c-12.828-4.17-25.694-8.257-38.595-12.263c-1.151-0.357-2.306-0.708-3.458-1.064c-5.155-1.593-10.313-3.178-15.479-4.746  c-1.818-0.551-3.64-1.094-5.459-1.643c-4.512-1.359-9.027-2.714-13.547-4.053c-2.115-0.626-4.232-1.245-6.349-1.867  c-4.24-1.246-8.482-2.487-12.73-3.716c-2.271-0.656-4.544-1.307-6.817-1.958c-4.116-1.18-8.234-2.354-12.357-3.517  c-2.343-0.661-4.687-1.318-7.032-1.973c-4.08-1.141-8.164-2.272-12.25-3.396c-2.362-0.65-4.725-1.298-7.089-1.942  c-4.11-1.12-8.225-2.229-12.342-3.332c-2.327-0.624-4.654-1.248-6.983-1.866c-4.211-1.118-8.427-2.222-12.645-3.322  c-2.231-0.582-4.461-1.167-6.694-1.745c-4.453-1.15-8.912-2.285-13.372-3.416c-1.993-0.505-3.984-1.017-5.979-1.519  c-5.061-1.272-10.129-2.526-15.199-3.773c-1.395-0.343-2.788-0.694-4.184-1.035c-13.08-3.197-26.193-6.312-39.338-9.341  c-1.361-0.313-2.725-0.618-4.086-0.93c-5.129-1.175-10.261-2.342-15.4-3.491c-2.096-0.469-4.197-0.927-6.295-1.392  c-4.408-0.976-8.818-1.949-13.233-2.905c-2.405-0.521-4.813-1.033-7.22-1.548c-4.128-0.884-8.257-1.765-12.392-2.632  c-2.546-0.534-5.095-1.061-7.644-1.589c-4.008-0.831-8.019-1.656-12.033-2.471c-2.625-0.533-5.252-1.061-7.88-1.587  c-3.957-0.792-7.917-1.578-11.88-2.355c-2.657-0.521-5.316-1.04-7.975-1.554c-3.958-0.766-7.92-1.521-11.884-2.272  c-2.651-0.501-5.302-1.003-7.955-1.499c-4.026-0.751-8.057-1.49-12.089-2.225c-2.58-0.471-5.16-0.944-7.742-1.408  c-4.189-0.752-8.383-1.491-12.577-2.227c-2.427-0.425-4.851-0.857-7.28-1.277c-4.557-0.788-9.12-1.558-13.683-2.326  c-2.068-0.348-4.133-0.704-6.202-1.048c-5.803-0.964-11.613-1.908-17.427-2.84c-0.831-0.133-1.66-0.272-2.491-0.405  c-6.713-1.07-13.433-2.118-20.161-3.144c-1.432-0.218-2.868-0.427-4.301-0.643c-5.223-0.79-10.449-1.573-15.681-2.336  c-2.298-0.335-4.601-0.658-6.901-0.988c-4.374-0.627-8.747-1.254-13.127-1.863c-2.609-0.363-5.221-0.714-7.832-1.071  c-4.08-0.557-8.161-1.112-12.246-1.653c-2.76-0.365-5.524-0.722-8.287-1.08c-3.95-0.512-7.902-1.021-11.857-1.518  c-2.837-0.356-5.676-0.707-8.516-1.055c-3.899-0.479-7.799-0.952-11.702-1.416c-2.866-0.341-5.734-0.678-8.602-1.011  c-3.9-0.453-7.803-0.897-11.707-1.335c-2.862-0.321-5.725-0.642-8.59-0.955c-3.938-0.431-7.879-0.851-11.821-1.266  c-2.83-0.299-5.66-0.599-8.492-0.89c-4.036-0.415-8.077-0.815-12.118-1.214c-2.73-0.27-5.459-0.543-8.191-0.806  c-4.287-0.412-8.579-0.806-12.871-1.2c-0.584-0.054-1.168-0.107-1.751-0.162c-1.932-0.176-3.863-0.36-5.796-0.533  c-4.751-0.424-9.508-0.829-14.265-1.231c-2.01-0.17-4.016-0.35-6.027-0.516c-6.783-0.561-13.572-1.1-20.367-1.617  c-1.273-0.097-2.548-0.184-3.822-0.279c-5.544-0.415-11.092-0.821-16.645-1.206c-2.408-0.167-4.821-0.32-7.23-0.481  c-4.395-0.294-8.79-0.589-13.189-0.865c-2.832-0.177-5.667-0.342-8.501-0.512c-3.987-0.239-7.974-0.478-11.965-0.702  c-2.964-0.166-5.931-0.321-8.897-0.479c-3.93-0.209-7.862-0.416-11.797-0.61c-1.707-0.084-3.416-0.163-5.124-0.243  c-1.26-0.06-2.52-0.121-3.781-0.18c-3.91-0.182-7.821-0.359-11.733-0.526c-0.145-0.006-0.291-0.012-0.436-0.018  c-2.927-0.125-5.854-0.245-8.782-0.362c-3.74-0.148-7.482-0.29-11.227-0.426c-3.144-0.113-6.289-0.224-9.436-0.329  c-3.814-0.126-7.63-0.243-11.448-0.355c-3.068-0.09-6.137-0.181-9.207-0.262c-3.901-0.103-7.804-0.194-11.709-0.283  c-3.013-0.068-6.026-0.141-9.042-0.2c-4.077-0.081-8.156-0.146-12.237-0.21c-2.829-0.045-5.657-0.097-8.488-0.134  c-4.151-0.055-8.307-0.092-12.462-0.129c-2.773-0.026-5.544-0.061-8.319-0.079C3086.768,0.026,3079.887,0,3073,0  c-5.966,0-11.927,0.022-17.885,0.057c-1.764,0.01-3.527,0.024-5.291,0.038c-4.403,0.033-8.805,0.074-13.204,0.125  c-1.776,0.021-3.553,0.04-5.329,0.063c-5.915,0.079-11.826,0.168-17.732,0.281c-0.024,0-0.048,0-0.073,0.001  c-0.671,0.013-1.341,0.031-2.012,0.044c-12.601,0.248-25.185,0.566-37.749,0.965c-7.419,0.236-14.831,0.504-22.237,0.792  c-2.404,0.093-4.805,0.198-7.208,0.297c-5.189,0.214-10.375,0.438-15.558,0.678c-2.656,0.123-5.312,0.249-7.966,0.378  c-5.202,0.254-10.399,0.523-15.594,0.803c-2.364,0.127-4.729,0.25-7.091,0.382c-7.393,0.415-14.78,0.85-22.158,1.316  c-5.964,0.378-11.922,0.777-17.876,1.189c-1.671,0.115-3.342,0.235-5.012,0.353c-4.413,0.312-8.823,0.634-13.231,0.965  c-1.686,0.126-3.372,0.251-5.057,0.381c-7.907,0.606-15.803,1.251-23.693,1.917c-4.448,0.375-8.897,0.748-13.341,1.143  c-3.537,0.314-7.068,0.649-10.601,0.975c-15.528,1.433-31.027,2.97-46.487,4.633c-1.874,0.202-3.745,0.413-5.618,0.618  c-4.212,0.461-8.424,0.925-12.631,1.403c-2.257,0.256-4.511,0.521-6.767,0.782c-3.839,0.445-7.676,0.894-11.51,1.353  c-2.371,0.284-4.74,0.572-7.109,0.861c-3.75,0.458-7.499,0.922-11.245,1.393c-2.369,0.298-4.738,0.597-7.105,0.9  c-3.821,0.49-7.639,0.989-11.456,1.493c-2.248,0.296-4.496,0.59-6.742,0.892c-4.176,0.561-8.348,1.134-12.518,1.711  c-1.862,0.258-3.725,0.509-5.585,0.771c-12.064,1.692-24.105,3.455-36.123,5.287c-1.858,0.283-3.712,0.576-5.569,0.862  c-4.14,0.639-8.28,1.281-12.414,1.937c-2.245,0.356-4.487,0.719-6.73,1.08c-3.767,0.606-7.533,1.216-11.295,1.835  c-2.359,0.388-4.716,0.781-7.073,1.175c-3.669,0.613-7.336,1.232-11,1.858c-2.363,0.404-4.726,0.809-7.088,1.217  c-3.741,0.648-7.479,1.306-11.216,1.967c-2.237,0.396-4.474,0.79-6.71,1.19c-4.092,0.734-8.18,1.48-12.266,2.23  c-1.859,0.341-3.72,0.677-5.577,1.021c-11.879,2.203-23.734,4.475-35.565,6.814c-1.865,0.369-3.728,0.747-5.593,1.119  c-4.047,0.808-8.093,1.62-12.135,2.444c-2.231,0.455-4.459,0.917-6.688,1.377c-3.689,0.761-7.376,1.525-11.061,2.299  c-2.338,0.491-4.674,0.986-7.009,1.483c-3.607,0.767-7.212,1.54-10.814,2.319c-2.33,0.504-4.659,1.009-6.987,1.518  c-3.673,0.804-7.343,1.616-11.01,2.433c-2.22,0.494-4.441,0.986-6.659,1.485c-4.001,0.9-7.997,1.813-11.992,2.729  c-1.857,0.426-3.716,0.846-5.571,1.275c-11.689,2.703-23.353,5.472-34.991,8.308c-1.847,0.45-3.69,0.909-5.535,1.362  c-3.97,0.975-7.938,1.953-11.902,2.944c-2.209,0.552-4.415,1.111-6.622,1.668c-3.615,0.912-7.229,1.828-10.84,2.753  c-2.312,0.592-4.623,1.189-6.933,1.787c-3.531,0.914-7.059,1.833-10.585,2.759c-2.311,0.606-4.621,1.214-6.929,1.826  c-3.598,0.954-7.192,1.916-10.784,2.882c-2.192,0.59-4.386,1.177-6.576,1.771c-3.922,1.064-7.838,2.141-11.754,3.22  c-1.84,0.507-3.683,1.009-5.521,1.52c-11.486,3.189-22.944,6.444-34.375,9.763c-1.84,0.534-3.677,1.077-5.516,1.615  c-3.878,1.134-7.755,2.271-11.626,3.42c-2.18,0.646-4.357,1.301-6.536,1.952c-3.545,1.061-7.087,2.125-10.627,3.197  c-2.281,0.691-4.561,1.387-6.841,2.084c-3.453,1.056-6.903,2.117-10.351,3.185c-2.287,0.708-4.573,1.417-6.857,2.13  c-3.516,1.098-7.028,2.204-10.538,3.313c-2.169,0.686-4.339,1.369-6.506,2.06c-3.827,1.219-7.648,2.451-11.469,3.685  c-1.832,0.592-3.667,1.178-5.498,1.773c-5.635,1.832-11.264,3.676-16.885,5.54h-0.001c-5.618,1.863-11.228,3.744-16.832,5.638  c-1.834,0.62-3.664,1.248-5.496,1.872c-3.782,1.287-7.563,2.575-11.339,3.876c-2.153,0.742-4.302,1.49-6.452,2.237  c-3.463,1.202-6.924,2.407-10.381,3.621c-2.25,0.79-4.498,1.583-6.746,2.378c-3.381,1.196-6.76,2.398-10.136,3.605  c-2.248,0.804-4.495,1.609-6.741,2.418c-3.433,1.237-6.862,2.482-10.29,3.731c-2.148,0.783-4.296,1.563-6.442,2.35  c-3.73,1.369-7.454,2.749-11.177,4.132c-1.817,0.675-3.636,1.344-5.451,2.022c-5.511,2.059-11.015,4.13-16.51,6.219  c-0.026,0.01-0.052,0.02-0.079,0.03c-5.491,2.088-10.974,4.194-16.45,6.312c-1.817,0.703-3.629,1.414-5.444,2.12  c-3.687,1.434-7.372,2.871-11.052,4.319c-2.127,0.837-4.251,1.681-6.375,2.522c-3.374,1.336-6.746,2.676-10.114,4.024  c-2.219,0.889-4.437,1.781-6.654,2.674c-3.302,1.331-6.601,2.667-9.898,4.009c-2.206,0.898-4.412,1.797-6.616,2.7  c-3.363,1.378-6.722,2.765-10.079,4.154c-2.103,0.871-4.207,1.739-6.308,2.614c-3.651,1.521-7.297,3.053-10.941,4.588  c-1.781,0.75-3.565,1.495-5.345,2.249c-5.338,2.26-10.669,4.532-15.991,6.821c-0.141,0.061-0.282,0.122-0.423,0.183  c-5.319,2.289-10.629,4.594-15.932,6.912c-1.783,0.779-3.561,1.566-5.342,2.349c-3.597,1.581-7.193,3.163-10.783,4.757  c-2.099,0.932-4.194,1.87-6.29,2.806c-3.285,1.467-6.569,2.938-9.848,4.417c-2.184,0.984-4.365,1.973-6.546,2.963  c-3.214,1.458-6.425,2.921-9.633,4.391c-2.176,0.996-4.351,1.993-6.524,2.994c-3.27,1.507-6.536,3.022-9.801,4.54  c-2.072,0.963-4.144,1.924-6.213,2.892c-3.552,1.662-7.098,3.334-10.642,5.009c-1.761,0.832-3.524,1.659-5.283,2.494  c-5.179,2.459-10.351,4.931-15.514,7.417c-0.208,0.101-0.417,0.201-0.625,0.301c-5.161,2.488-10.312,4.991-15.457,7.506  c-1.751,0.856-3.498,1.721-5.248,2.581c-3.511,1.725-7.02,3.452-10.523,5.189c-2.05,1.017-4.096,2.04-6.143,3.062  c-3.206,1.599-6.409,3.201-9.609,4.812c-2.14,1.077-4.278,2.158-6.416,3.24c-3.132,1.586-6.262,3.177-9.388,4.773  c-2.13,1.087-4.26,2.176-6.387,3.268c-3.184,1.635-6.363,3.277-9.54,4.923c-2.035,1.054-4.071,2.106-6.103,3.164  c-3.449,1.796-6.891,3.603-10.332,5.412c-1.736,0.912-3.475,1.82-5.209,2.735c-5.002,2.642-9.996,5.295-14.982,7.963  c-0.305,0.163-0.611,0.327-0.916,0.49c-4.981,2.668-9.953,5.351-14.917,8.045c-1.733,0.94-3.46,1.889-5.191,2.833  c-3.399,1.854-6.797,3.709-10.189,5.575c-2.012,1.107-4.021,2.221-6.031,3.333c-3.117,1.724-6.233,3.451-9.343,5.186  c-2.091,1.167-4.18,2.336-6.269,3.508c-3.049,1.709-6.095,3.424-9.138,5.145c-2.081,1.176-4.162,2.354-6.24,3.535  c-3.096,1.76-6.188,3.527-9.277,5.297c-1.992,1.141-3.985,2.281-5.975,3.426c-3.35,1.929-6.693,3.869-10.034,5.81  c-1.702,0.989-3.407,1.973-5.107,2.965c-4.863,2.838-9.718,5.688-14.564,8.551c-0.315,0.186-0.63,0.372-0.945,0.559  c-4.843,2.864-9.676,5.743-14.502,8.633c-1.693,1.014-3.381,2.036-5.073,3.053c-3.303,1.987-6.604,3.975-9.898,5.974  c-1.968,1.193-3.931,2.394-5.895,3.591c-3.027,1.846-6.053,3.694-9.073,5.55c-2.04,1.253-4.077,2.511-6.113,3.769  c-2.964,1.831-5.924,3.667-8.882,5.507c-2.03,1.264-4.058,2.528-6.085,3.795c-3.01,1.883-6.015,3.774-9.018,5.667  c-1.938,1.222-3.877,2.442-5.812,3.668c-3.252,2.061-6.498,4.131-9.742,6.204c-1.665,1.064-3.333,2.123-4.995,3.189  c-4.742,3.042-9.475,6.096-14.199,9.164c-0.274,0.178-0.548,0.356-0.822,0.534c-4.728,3.073-9.447,6.16-14.157,9.258  c-1.637,1.077-3.269,2.161-4.905,3.241c-3.216,2.124-6.43,4.25-9.637,6.385c-1.916,1.276-3.827,2.558-5.74,3.837  c-2.935,1.963-5.868,3.93-8.796,5.904c-1.99,1.342-3.978,2.687-5.964,4.033c-2.868,1.943-5.733,3.891-8.594,5.844  c-1.981,1.352-3.962,2.705-5.94,4.062c-2.912,1.997-5.819,4.002-8.725,6.009c-1.891,1.306-3.782,2.61-5.67,3.92  c-3.15,2.188-6.294,4.384-9.436,6.583c-1.622,1.136-3.248,2.266-4.868,3.405c-4.57,3.211-9.132,6.434-13.683,9.669  c-0.329,0.234-0.659,0.468-0.988,0.703c-4.55,3.237-9.09,6.487-13.622,9.749c-1.61,1.159-3.215,2.325-4.823,3.487  c-3.1,2.24-6.199,4.482-9.29,6.733c-1.86,1.355-3.716,2.716-5.573,4.075c-2.847,2.083-5.691,4.168-8.53,6.26  c-1.927,1.42-3.852,2.844-5.776,4.269c-2.781,2.06-5.559,4.124-8.333,6.193c-1.919,1.431-3.837,2.863-5.753,4.299  c-2.828,2.12-5.65,4.246-8.47,6.374c-1.826,1.378-3.654,2.755-5.477,4.138c-3.057,2.318-6.105,4.645-9.153,6.974  c-1.567,1.198-3.138,2.391-4.703,3.592c-4.446,3.411-8.884,6.833-13.311,10.269c-0.281,0.218-0.561,0.436-0.841,0.653  c-4.425,3.436-8.839,6.885-13.245,10.344c-1.554,1.22-3.101,2.447-4.652,3.67c-3.008,2.371-6.014,4.744-9.013,7.126  c-1.797,1.428-3.59,2.861-5.384,4.293c-2.75,2.195-5.497,4.392-8.24,6.595c-1.873,1.506-3.744,3.015-5.613,4.524  c-2.682,2.166-5.36,4.336-8.034,6.51c-1.861,1.514-3.722,3.028-5.58,4.545c-2.724,2.226-5.443,4.458-8.159,6.693  c-1.776,1.461-3.554,2.92-5.327,4.386c-2.948,2.437-5.888,4.882-8.827,7.33c-1.516,1.262-3.035,2.52-4.548,3.785  c-4.262,3.563-8.516,7.137-12.758,10.723c-0.341,0.288-0.681,0.576-1.022,0.864c-4.239,3.585-8.466,7.183-12.685,10.791  c-1.502,1.285-2.999,2.577-4.498,3.864c-2.9,2.489-5.798,4.98-8.688,7.48c-1.738,1.503-3.471,3.012-5.205,4.52  c-2.654,2.306-5.305,4.614-7.95,6.928c-1.805,1.579-3.606,3.161-5.407,4.744c-2.591,2.278-5.178,4.56-7.762,6.846  c-1.792,1.586-3.584,3.173-5.372,4.763c-2.63,2.338-5.253,4.683-7.875,7.03c-1.711,1.531-3.423,3.061-5.13,4.596  c-2.831,2.546-5.653,5.1-8.474,7.656c-1.478,1.339-2.959,2.673-4.434,4.015c-4.124,3.751-8.239,7.512-12.343,11.286  c-0.284,0.261-0.568,0.522-0.851,0.783c-4.107,3.779-8.202,7.57-12.288,11.371c-1.446,1.345-2.885,2.697-4.328,4.044  c-2.793,2.608-5.585,5.218-8.368,7.836c-1.673,1.574-3.341,3.154-5.011,4.731c-2.552,2.411-5.101,4.825-7.644,7.245  c-1.742,1.657-3.481,3.318-5.219,4.979c-2.485,2.375-4.967,4.755-7.444,7.14c-1.73,1.665-3.459,3.33-5.185,4.999  c-2.529,2.445-5.052,4.896-7.572,7.35c-1.642,1.598-3.285,3.194-4.923,4.796c-2.734,2.673-5.46,5.355-8.185,8.04  c-1.405,1.384-2.814,2.765-4.217,4.151c-3.94,3.896-7.871,7.803-11.791,11.721c-0.326,0.326-0.652,0.652-0.978,0.978  c-3.917,3.919-7.823,7.85-11.72,11.79c-1.39,1.405-2.772,2.817-4.159,4.225c-2.679,2.72-5.356,5.441-8.025,8.17  c-1.608,1.645-3.211,3.294-4.815,4.942c-2.45,2.517-4.897,5.035-7.338,7.56c-1.665,1.722-3.327,3.448-4.989,5.174  c-2.394,2.487-4.784,4.979-7.169,7.475c-1.65,1.726-3.298,3.452-4.944,5.182c-2.429,2.553-4.852,5.112-7.273,7.674  c-1.573,1.665-3.149,3.328-4.718,4.997c-2.623,2.788-5.237,5.584-7.85,8.382c-1.342,1.437-2.688,2.87-4.027,4.31  c-3.777,4.061-7.545,8.131-11.301,12.212c-0.311,0.337-0.621,0.675-0.932,1.013c-3.752,4.081-7.493,8.173-11.223,12.274  c-1.324,1.456-2.641,2.918-3.962,4.376c-2.572,2.839-5.143,5.679-7.705,8.528c-1.529,1.7-3.052,3.404-4.577,5.108  c-2.354,2.629-4.705,5.26-7.049,7.897c-1.585,1.782-3.167,3.568-4.747,5.354c-2.291,2.589-4.578,5.181-6.86,7.778  c-1.581,1.799-3.162,3.599-4.739,5.401c-2.313,2.644-4.62,5.294-6.925,7.946c-1.509,1.736-3.02,3.471-4.525,5.211  c-2.497,2.886-4.985,5.781-7.471,8.676c-1.291,1.503-2.586,3.003-3.873,4.509c-3.626,4.24-7.241,8.488-10.844,12.748  c-0.253,0.3-0.507,0.599-0.76,0.899c-3.601,4.26-7.189,8.531-10.767,12.811c-1.271,1.52-2.534,3.046-3.802,4.568  c-2.445,2.936-4.887,5.873-7.321,8.817c-1.462,1.77-2.919,3.544-4.378,5.317c-2.238,2.72-4.473,5.442-6.702,8.17  c-1.513,1.853-3.023,3.708-4.532,5.564c-2.182,2.683-4.359,5.37-6.531,8.06c-1.502,1.86-3.003,3.721-4.501,5.584  c-2.21,2.75-4.413,5.505-6.613,8.262c-1.43,1.792-2.862,3.583-4.288,5.378c-2.384,3.001-4.759,6.01-7.132,9.02  c-1.219,1.546-2.442,3.088-3.658,4.637c-3.476,4.426-6.942,8.861-10.394,13.308c-0.188,0.243-0.377,0.485-0.565,0.728  c-3.451,4.447-6.888,8.905-10.315,13.371c-1.198,1.562-2.389,3.129-3.584,4.692c-2.33,3.049-4.658,6.1-6.977,9.158  c-1.383,1.823-2.76,3.652-4.139,5.479c-2.131,2.823-4.259,5.648-6.381,8.479c-1.429,1.906-2.854,3.815-4.278,5.725  c-2.078,2.786-4.151,5.576-6.22,8.369c-1.418,1.916-2.836,3.831-4.25,5.75c-2.099,2.848-4.191,5.702-6.28,8.557  c-1.351,1.847-2.704,3.692-4.051,5.542c-2.267,3.113-4.524,6.233-6.78,9.354c-1.147,1.587-2.298,3.171-3.442,4.76  c-3.276,4.552-6.541,9.112-9.792,13.683c-0.211,0.297-0.422,0.593-0.633,0.89c-3.25,4.571-6.486,9.153-9.711,13.742  c-1.128,1.605-2.248,3.216-3.373,4.823c-2.208,3.155-4.414,6.312-6.611,9.476c-1.305,1.879-2.604,3.764-3.905,5.646  c-2.013,2.915-4.024,5.831-6.028,8.752c-1.351,1.97-2.699,3.943-4.046,5.917c-1.96,2.872-3.915,5.748-5.866,8.627  c-1.338,1.975-2.675,3.95-4.008,5.928c-1.984,2.943-3.961,5.892-5.935,8.843c-1.27,1.898-2.542,3.796-3.809,5.697  c-2.138,3.211-4.267,6.43-6.394,9.65c-1.081,1.637-2.167,3.27-3.245,4.909c-3.104,4.719-6.196,9.446-9.275,14.183  c-0.163,0.251-0.327,0.502-0.49,0.754c-3.078,4.739-6.141,9.488-9.194,14.246c-1.058,1.648-2.108,3.303-3.162,4.953  c-2.08,3.256-4.158,6.513-6.227,9.777c-1.226,1.934-2.445,3.873-3.666,5.81c-1.892,3-3.781,6.003-5.663,9.011  c-1.271,2.032-2.539,4.066-3.806,6.102c-1.84,2.956-3.675,5.916-5.505,8.878c-1.254,2.031-2.507,4.062-3.757,6.095  c-1.865,3.035-3.722,6.074-5.576,9.115c-1.189,1.951-2.38,3.9-3.566,5.854c-2.011,3.314-4.012,6.636-6.01,9.959  c-1.005,1.671-2.016,3.34-3.018,5.014c-2.921,4.876-5.83,9.761-8.724,14.655c-0.131,0.221-0.261,0.441-0.392,0.663  c-2.894,4.896-5.773,9.802-8.64,14.715c-0.981,1.681-1.954,3.366-2.931,5.049c-1.953,3.361-3.904,6.724-5.845,10.093  c-1.139,1.978-2.272,3.959-3.407,5.94c-1.775,3.099-3.548,6.2-5.313,9.305c-1.178,2.072-2.351,4.146-3.524,6.222  c-1.727,3.054-3.448,6.112-5.164,9.173c-1.164,2.075-2.326,4.151-3.485,6.229c-1.744,3.127-3.481,6.259-5.214,9.394  c-1.102,1.993-2.206,3.984-3.304,5.98c-1.882,3.42-3.753,6.846-5.622,10.274c-0.928,1.703-1.862,3.402-2.787,5.107  c-2.734,5.037-5.456,10.081-8.162,15.135c-0.092,0.172-0.184,0.344-0.276,0.516c-2.707,5.056-5.398,10.123-8.077,15.196  c-0.903,1.71-1.798,3.426-2.699,5.138c-1.82,3.462-3.638,6.925-5.445,10.395c-1.055,2.025-2.103,4.054-3.153,6.081  c-1.649,3.185-3.296,6.371-4.934,9.562c-1.089,2.12-2.174,4.243-3.257,6.366c-1.602,3.139-3.2,6.28-4.792,9.425  c-1.074,2.123-2.148,4.245-3.217,6.371c-1.617,3.213-3.227,6.432-4.833,9.652c-1.017,2.04-2.037,4.078-3.05,6.12  c-1.739,3.504-3.466,7.016-5.192,10.528c-0.858,1.747-1.722,3.491-2.577,5.24c-2.547,5.208-5.081,10.424-7.599,15.649  c-0.04,0.084-0.081,0.168-0.121,0.252c-2.519,5.228-5.021,10.465-7.511,15.71c-0.827,1.742-1.646,3.489-2.47,5.232  c-1.683,3.562-3.364,7.125-5.033,10.694c-0.962,2.057-1.917,4.116-2.874,6.175c-1.525,3.28-3.047,6.562-4.561,9.847  c-0.994,2.158-1.985,4.318-2.974,6.479c-1.477,3.225-2.948,6.453-4.414,9.684c-0.983,2.166-1.964,4.333-2.942,6.501  c-1.487,3.297-2.966,6.6-4.441,9.903c-0.929,2.08-1.86,4.158-2.784,6.24c-1.6,3.604-3.188,7.213-4.774,10.823  c-0.778,1.771-1.561,3.54-2.336,5.312c-2.324,5.318-4.636,10.643-6.931,15.977c-0.049,0.115-0.099,0.23-0.148,0.345  c-2.295,5.336-4.573,10.681-6.839,16.032c-0.751,1.774-1.494,3.553-2.242,5.33c-1.537,3.649-3.071,7.299-4.594,10.956  c-0.874,2.098-1.741,4.199-2.61,6.298c-1.391,3.36-2.779,6.723-4.158,10.089c-0.902,2.201-1.8,4.405-2.697,6.608  c-1.343,3.299-2.68,6.601-4.012,9.906c-0.892,2.214-1.783,4.429-2.671,6.645c-1.351,3.375-2.694,6.755-4.033,10.136  c-0.838,2.115-1.678,4.229-2.511,6.347c-1.457,3.703-2.903,7.412-4.346,11.122c-0.696,1.79-1.398,3.577-2.091,5.369  c-4.252,10.992-8.442,22.014-12.571,33.066c-0.67,1.794-1.332,3.592-1.999,5.388c-1.391,3.745-2.779,7.491-4.156,11.243  c-0.782,2.131-1.557,4.265-2.334,6.397c-1.255,3.443-2.506,6.888-3.749,10.337c-0.805,2.234-1.606,4.471-2.406,6.707  c-1.21,3.384-2.415,6.77-3.613,10.159c-0.794,2.245-1.587,4.49-2.376,6.737c-1.217,3.466-2.425,6.936-3.63,10.407  c-0.742,2.138-1.487,4.276-2.224,6.417c-1.309,3.799-2.606,7.604-3.9,11.41c-0.615,1.808-1.235,3.614-1.847,5.424  c-3.792,11.219-7.521,22.467-11.186,33.743c-0.59,1.816-1.172,3.636-1.759,5.453c-1.238,3.832-2.473,7.666-3.696,11.504  c-0.689,2.163-1.371,4.329-2.056,6.494c-1.113,3.519-2.222,7.04-3.322,10.565c-0.709,2.272-1.415,4.547-2.119,6.822  c-1.071,3.459-2.136,6.921-3.195,10.385c-0.694,2.271-1.388,4.543-2.077,6.816c-1.077,3.552-2.144,7.107-3.209,10.665  c-0.647,2.164-1.297,4.327-1.94,6.494c-1.155,3.892-2.297,7.789-3.437,11.687c-0.532,1.82-1.07,3.638-1.599,5.46  c-3.32,11.435-6.576,22.898-9.766,34.387c-0.51,1.837-1.011,3.677-1.518,5.515c-1.08,3.917-2.157,7.836-3.221,11.759  c-0.594,2.189-1.181,4.38-1.77,6.571c-0.968,3.598-1.932,7.197-2.887,10.8c-0.609,2.299-1.215,4.6-1.819,6.902  c-0.927,3.533-1.849,7.068-2.764,10.606c-0.597,2.308-1.193,4.616-1.785,6.926c-0.927,3.617-1.844,7.237-2.758,10.859  c-0.555,2.198-1.111,4.395-1.661,6.594c-0.995,3.982-1.978,7.97-2.958,11.958c-0.449,1.827-0.903,3.651-1.348,5.479  c-2.838,11.645-5.609,23.316-8.313,35.013c-0.425,1.837-0.84,3.677-1.262,5.515c-0.92,4.014-1.837,8.029-2.742,12.049  c-0.496,2.206-0.985,4.414-1.477,6.622c-0.819,3.68-1.635,7.362-2.441,11.047c-0.507,2.319-1.01,4.64-1.513,6.96  c-0.782,3.613-1.557,7.228-2.326,10.846c-0.494,2.325-0.987,4.651-1.476,6.978c-0.777,3.697-1.544,7.397-2.307,11.099  c-0.457,2.217-0.917,4.434-1.37,6.653c-0.828,4.059-1.642,8.122-2.454,12.186c-0.369,1.848-0.744,3.694-1.109,5.543  c-2.341,11.836-4.613,23.697-6.818,35.582c-0.341,1.842-0.674,3.686-1.012,5.529c-0.753,4.104-1.503,8.209-2.24,12.319  c-0.398,2.222-0.79,4.447-1.183,6.671c-0.664,3.75-1.324,7.501-1.974,11.256c-0.407,2.352-0.81,4.705-1.212,7.059  c-0.628,3.674-1.248,7.35-1.863,11.029c-0.392,2.349-0.784,4.698-1.171,7.05c-0.621,3.772-1.233,7.548-1.84,11.325  c-0.359,2.234-0.721,4.466-1.075,6.702c-0.658,4.149-1.302,8.302-1.943,12.456c-0.284,1.843-0.575,3.684-0.856,5.529  c-1.833,12.022-3.596,24.067-5.289,36.135c-0.26,1.851-0.51,3.705-0.766,5.557c-0.579,4.181-1.154,8.363-1.716,12.549  c-0.301,2.239-0.594,4.48-0.889,6.721c-0.505,3.823-1.005,7.648-1.496,11.477c-0.303,2.362-0.601,4.725-0.898,7.088  c-0.472,3.753-0.937,7.508-1.396,11.265c-0.288,2.363-0.576,4.726-0.859,7.09c-0.46,3.842-0.91,7.686-1.355,11.532  c-0.261,2.249-0.524,4.496-0.779,6.746c-0.479,4.218-0.945,8.441-1.407,12.664c-0.204,1.862-0.414,3.722-0.614,5.585  c-3.37,31.321-6.267,62.782-8.688,94.377c-0.112,1.465-0.221,2.931-0.331,4.397c-0.352,4.683-0.694,9.368-1.025,14.056  c-0.102,1.45-0.206,2.9-0.307,4.35c-0.446,6.452-0.874,12.909-1.28,19.372c-0.434,6.904-0.843,13.815-1.232,20.731  c-0.144,2.563-0.277,5.129-0.414,7.694c-0.267,4.967-0.524,9.936-0.768,14.909c-0.138,2.829-0.273,5.659-0.403,8.49  c-0.229,4.955-0.443,9.914-0.648,14.875c-0.108,2.602-0.22,5.202-0.321,7.805c-0.269,6.93-0.518,13.865-0.741,20.807  c-0.63,19.59-1.075,39.227-1.336,58.908c-0.023,1.714-0.041,3.429-0.061,5.144c-0.052,4.436-0.094,8.873-0.126,13.313  c-0.013,1.758-0.028,3.515-0.038,5.273C1.023,3060.071,1,3066.033,1,3072c0,6.934,0.026,13.862,0.072,20.785  c0.015,2.293,0.045,4.582,0.065,6.874c0.041,4.63,0.082,9.261,0.144,13.886c0.036,2.73,0.086,5.458,0.13,8.186  c0.066,4.188,0.133,8.375,0.216,12.559c0.058,2.899,0.127,5.795,0.193,8.693c0.091,4.009,0.184,8.016,0.29,12.021  c0.079,2.983,0.167,5.964,0.255,8.945c0.115,3.926,0.235,7.85,0.365,11.772c0.1,3.007,0.206,6.012,0.314,9.018  c0.141,3.904,0.289,7.806,0.444,11.706c0.12,2.999,0.242,5.996,0.37,8.992c0.167,3.915,0.344,7.826,0.526,11.737  c0.138,2.968,0.276,5.936,0.423,8.901c0.196,3.967,0.404,7.931,0.615,11.894c0.023,0.435,0.047,0.87,0.07,1.305  c0.133,2.483,0.262,4.968,0.401,7.45c0.228,4.067,0.471,8.131,0.715,12.194c0.165,2.755,0.325,5.511,0.498,8.264  c0.278,4.424,0.573,8.844,0.87,13.263c0.16,2.394,0.312,4.79,0.478,7.183c0.391,5.635,0.803,11.265,1.224,16.893  c0.052,0.7,0.103,1.401,0.153,2.102c0.036,0.483,0.069,0.967,0.106,1.45c0.517,6.813,1.059,13.619,1.621,20.42  c0.141,1.711,0.294,3.417,0.439,5.127c0.011,0.133,0.023,0.265,0.034,0.398c0.417,4.944,0.838,9.885,1.279,14.822  c0.236,2.645,0.487,5.286,0.729,7.929c0.378,4.115,0.756,8.23,1.151,12.341c0.268,2.791,0.548,5.578,0.823,8.367  c0.396,4.012,0.793,8.023,1.205,12.031c0.291,2.832,0.591,5.662,0.89,8.492c0.416,3.942,0.835,7.883,1.266,11.821  c0.313,2.865,0.633,5.727,0.955,8.59c0.438,3.904,0.883,7.807,1.335,11.707c0.333,2.869,0.67,5.736,1.011,8.602  c0.464,3.903,0.937,7.803,1.416,11.702c0.349,2.84,0.699,5.679,1.055,8.516c0.493,3.926,0.998,7.848,1.506,11.768  c0.364,2.808,0.726,5.617,1.098,8.423c0.539,4.069,1.092,8.135,1.647,12.199c0.356,2.611,0.708,5.223,1.071,7.832  c0.605,4.353,1.229,8.701,1.852,13.05c0.258,1.801,0.512,3.603,0.773,5.402c0.076,0.525,0.149,1.052,0.226,1.576  c0.763,5.232,1.546,10.458,2.336,15.681c0.217,1.433,0.425,2.868,0.643,4.301c1.026,6.728,2.074,13.448,3.144,20.161  c0.132,0.831,0.271,1.66,0.405,2.491c0.932,5.814,1.876,11.624,2.84,17.427c0.344,2.069,0.7,4.135,1.048,6.202  c0.768,4.564,1.538,9.126,2.326,13.683c0.42,2.428,0.851,4.853,1.277,7.28c0.736,4.195,1.474,8.389,2.227,12.577  c0.464,2.583,0.938,5.162,1.408,7.742c0.735,4.032,1.474,8.062,2.225,12.089c0.495,2.653,0.997,5.304,1.498,7.955  c0.75,3.964,1.506,7.925,2.272,11.884c0.514,2.66,1.033,5.318,1.554,7.975c0.777,3.963,1.563,7.923,2.355,11.88  c0.526,2.628,1.054,5.255,1.587,7.88c0.815,4.014,1.64,8.025,2.471,12.033c0.528,2.549,1.055,5.098,1.589,7.644  c0.868,4.134,1.748,8.264,2.633,12.392c0.515,2.407,1.027,4.815,1.548,7.22c0.957,4.415,1.93,8.824,2.906,13.233  c0.464,2.098,0.922,4.199,1.391,6.295c1.149,5.139,2.317,10.271,3.491,15.4c0.312,1.361,0.616,2.725,0.93,4.086  c3.029,13.145,6.143,26.258,9.341,39.338c0.341,1.396,0.692,2.788,1.035,4.184c1.247,5.07,2.501,10.138,3.773,15.199  c0.502,1.995,1.013,3.986,1.518,5.979c1.131,4.46,2.266,8.919,3.416,13.372c0.577,2.233,1.163,4.463,1.745,6.694  c1.1,4.218,2.204,8.434,3.322,12.645c0.618,2.329,1.243,4.656,1.867,6.983c1.103,4.117,2.212,8.231,3.332,12.342  c0.644,2.364,1.292,4.727,1.942,7.089c1.124,4.087,2.256,8.17,3.396,12.25c0.655,2.345,1.313,4.689,1.973,7.032  c1.163,4.123,2.336,8.241,3.516,12.357c0.652,2.273,1.302,4.546,1.959,6.817c1.228,4.248,2.469,8.49,3.716,12.73  c0.622,2.116,1.241,4.234,1.867,6.349c1.339,4.521,2.694,9.035,4.054,13.547c0.548,1.819,1.091,3.641,1.643,5.459  c1.567,5.166,3.152,10.324,4.745,15.479c0.356,1.152,0.706,2.307,1.064,3.458c4.005,12.901,8.092,25.767,12.263,38.595  c0.079,0.242,0.159,0.483,0.238,0.725c1.964,6.038,3.947,12.067,5.948,18.088c0.458,1.377,0.923,2.751,1.383,4.127  c1.632,4.889,3.272,9.775,4.928,14.653c0.604,1.779,1.215,3.554,1.823,5.332c1.532,4.485,3.07,8.968,4.622,13.443  c0.673,1.941,1.352,3.879,2.029,5.818c1.508,4.319,3.022,8.635,4.548,12.945c0.712,2.01,1.428,4.019,2.144,6.027  c1.515,4.249,3.038,8.494,4.57,12.734c0.728,2.012,1.457,4.024,2.189,6.035c1.556,4.276,3.122,8.547,4.696,12.813  c0.714,1.936,1.428,3.871,2.146,5.804c1.632,4.396,3.277,8.786,4.928,13.172c0.671,1.782,1.339,3.564,2.013,5.345  c1.765,4.66,3.544,9.313,5.331,13.963c0.572,1.489,1.14,2.979,1.714,4.467c2.026,5.248,4.069,10.486,6.123,15.72  c0.343,0.875,0.682,1.752,1.027,2.627c1.478,3.755,2.968,7.504,4.461,11.252c0.499,1.255,0.996,2.51,1.497,3.764  c1.444,3.614,2.898,7.224,4.355,10.831c0.601,1.487,1.203,2.974,1.806,4.459c1.452,3.577,2.908,7.152,4.373,10.722  c0.544,1.326,1.093,2.65,1.639,3.976c1.509,3.663,3.019,7.325,4.542,10.981c0.229,0.55,0.462,1.098,0.691,1.648  c2.301,5.515,4.616,11.022,6.948,16.52c0.511,1.204,1.027,2.405,1.539,3.608c2.063,4.848,4.135,9.69,6.223,14.524  c0.645,1.494,1.295,2.985,1.942,4.478c1.978,4.56,3.964,9.115,5.963,13.664c0.707,1.608,1.418,3.215,2.127,4.822  c1.962,4.442,3.932,8.88,5.914,13.312c0.735,1.644,1.472,3.287,2.21,4.929c1.991,4.431,3.993,8.857,6.005,13.277  c0.723,1.587,1.445,3.175,2.17,4.761c2.073,4.534,4.158,9.061,6.252,13.582c0.668,1.441,1.333,2.884,2.003,4.324  c2.222,4.778,4.459,9.549,6.705,14.314c0.548,1.163,1.093,2.327,1.642,3.489c2.514,5.316,5.044,10.624,7.588,15.923  c0.284,0.593,0.566,1.187,0.85,1.779c11.605,24.139,23.516,48.104,35.729,71.887c0.118,0.229,0.236,0.458,0.354,0.687  c0.206,0.402,0.415,0.802,0.621,1.204c2.661,5.173,5.335,10.341,8.025,15.498c0.539,1.034,1.082,2.065,1.623,3.098  c2.497,4.776,5.005,9.544,7.527,14.305c0.664,1.254,1.332,2.506,1.998,3.759c2.422,4.557,4.854,9.107,7.298,13.65  c0.753,1.399,1.508,2.798,2.263,4.196c2.356,4.363,4.723,8.719,7.099,13.07c0.836,1.531,1.673,3.062,2.512,4.591  c2.333,4.253,4.677,8.5,7.03,12.74c0.843,1.52,1.685,3.041,2.531,4.56c2.399,4.307,4.81,8.605,7.229,12.899  c0.779,1.382,1.554,2.766,2.335,4.146c2.627,4.647,5.269,9.285,7.919,13.916c0.577,1.008,1.149,2.018,1.727,3.024  c4.027,7.019,8.081,14.02,12.161,21.003c0.203,0.347,0.407,0.692,0.61,1.039c3.747,6.406,7.519,12.796,11.311,19.173  c0.624,1.049,1.247,2.097,1.872,3.145c8.165,13.694,16.43,27.322,24.801,40.878c0.61,0.988,1.225,1.974,1.836,2.961  c2.832,4.574,5.672,9.141,8.528,13.699c0.722,1.153,1.448,2.304,2.172,3.456c2.769,4.408,5.547,8.808,8.338,13.2  c0.825,1.298,1.652,2.595,2.478,3.892c2.728,4.279,5.465,8.552,8.214,12.816c0.792,1.229,1.585,2.458,2.379,3.687  c2.816,4.356,5.643,8.704,8.48,13.044c0.752,1.15,1.503,2.301,2.257,3.451c2.934,4.475,5.881,8.941,8.837,13.401  c0.646,0.975,1.29,1.95,1.938,2.924c3.18,4.783,6.373,9.556,9.578,14.319c0.451,0.67,0.9,1.343,1.351,2.013  c2.093,3.106,4.196,6.205,6.301,9.304c0.984,1.449,1.968,2.898,2.955,4.346c2.068,3.034,4.142,6.063,6.221,9.089  c0.972,1.415,1.946,2.827,2.92,4.24c2.159,3.132,4.32,6.262,6.491,9.385c0.551,0.793,1.105,1.583,1.657,2.375  c7.607,10.923,15.283,21.794,23.027,32.613c0.744,1.04,1.486,2.08,2.231,3.118c2.32,3.232,4.647,6.459,6.979,9.682  c0.8,1.105,1.601,2.21,2.402,3.315c2.399,3.307,4.803,6.611,7.215,9.908c0.569,0.778,1.142,1.555,1.712,2.332  c3.328,4.54,6.667,9.07,10.019,13.591c0.597,0.806,1.197,1.61,1.795,2.415c3.366,4.529,6.743,9.05,10.133,13.56  c0.619,0.823,1.239,1.646,1.858,2.469c3.334,4.426,6.68,8.842,10.037,13.25c0.641,0.843,1.283,1.685,1.925,2.526  c3.505,4.591,7.022,9.172,10.552,13.742c0.462,0.599,0.923,1.198,1.385,1.796c3.3,4.267,6.611,8.522,9.933,12.771  c0.321,0.411,0.641,0.822,0.962,1.232c3.255,4.159,6.521,8.307,9.796,12.449c0.39,0.493,0.779,0.986,1.17,1.479  c3.224,4.071,6.459,8.133,9.703,12.188c0.449,0.562,0.898,1.123,1.348,1.685c3.21,4.006,6.431,8.004,9.661,11.994  c0.48,0.592,0.96,1.185,1.44,1.777c3.219,3.971,6.448,7.934,9.687,11.888c0.484,0.591,0.969,1.182,1.454,1.772  c3.258,3.972,6.524,7.936,9.802,11.891c0.442,0.534,0.886,1.066,1.328,1.6c3.335,4.019,6.679,8.031,10.034,12.033  c0.354,0.422,0.709,0.843,1.063,1.265c3.458,4.12,6.924,8.232,10.404,12.333c0.203,0.239,0.406,0.477,0.609,0.716  c3.994,4.706,8.002,9.398,12.023,14.08c0.522,0.607,1.045,1.213,1.568,1.821c3.78,4.392,7.571,8.775,11.376,13.145  c0.517,0.594,1.034,1.187,1.551,1.78c3.907,4.482,7.826,8.952,11.758,13.411c0.438,0.497,0.876,0.994,1.315,1.49  c4.015,4.547,8.044,9.083,12.086,13.605c0.306,0.343,0.612,0.686,0.918,1.028c35.485,39.676,71.986,78.422,109.461,116.202  c0.242,0.244,0.484,0.487,0.726,0.731c4.409,4.443,8.833,8.871,13.27,13.287c0.347,0.345,0.694,0.689,1.04,1.034  c4.351,4.326,8.714,8.639,13.091,12.939c0.193,0.189,0.385,0.378,0.578,0.567c0.12,0.118,0.24,0.236,0.36,0.353  C925.559,5268.735,930.088,5273.154,934.631,5277.559z" enable-background="new    " fill="#101111" opacity="0.15"/><path d="M4160.472,5264.992c0,36.508-24.619,66.103-54.987,66.103H2045.311c-30.368,0-54.987-29.595-54.987-66.103  l-335.726-3845.418c0-39.765,32.235-72,72-72h2697.6c39.765,0,72,32.235,72,72L4160.472,5264.992z" fill="#725A44"/><path d="M4594.021,1112.886h-117.623h-129.624H1729.948h-201.947c-37.471,0-67.847,35.625-67.847,79.571  l59.845,325.672c0,35.419,29.24,64.131,65.31,64.131h2951.403c36.069,0,65.31-28.713,65.31-64.131l59.845-325.672  C4661.868,1148.511,4631.492,1112.886,4594.021,1112.886z" fill="#F4F4F4"/><path d="M4237.547,860.896H1839.175c-34.406,0-62.298,37.355-62.298,83.434l-46.929,168.556h2616.826  l-46.929-168.556C4299.845,898.251,4271.954,860.896,4237.547,860.896z" fill="#DBDBDB"/><polygon fill="#F4F4F4" points="4315.624,3487.878 1835.172,3487.878 1787.486,2941.676 4362.442,2941.676 "/><ellipse cx="3706.473" cy="3214.777" fill="#DBB56A" rx="576" ry="648"/></svg>