<?xml version="1.0" ?><!DOCTYPE svg  PUBLIC '-//W3C//DTD SVG 1.1//EN'  'http://www.w3.org/Graphics/SVG/1.1/DTD/svg11.dtd'><svg enable-background="new 0 0 6144 6144" height="6144px" id="Слой_1" version="1.1" viewBox="0 0 6144 6144" width="6144px" xml:space="preserve" xmlns="http://www.w3.org/2000/svg" xmlns:xlink="http://www.w3.org/1999/xlink"><circle cx="3073" cy="3072" fill="#DBB56A" r="3072"/><path d="M295.612,3366.612c0-1696.619,1375.381-3072,3072-3072  c773.336,0,1479.922,285.762,2019.948,757.44c-35.123-40.212-71.277-79.499-108.42-117.823c-0.193-0.199-0.386-0.398-0.579-0.597  c-4.405-4.542-8.824-9.071-13.257-13.586c-0.278-0.283-0.556-0.566-0.833-0.849c-4.399-4.478-8.812-8.942-13.238-13.393  c-0.254-0.255-0.507-0.51-0.761-0.765c-4.545-4.567-9.104-9.12-13.677-13.658c-0.094-0.093-0.188-0.187-0.282-0.28  c-37.846-37.546-76.664-74.113-116.412-109.662c-0.243-0.217-0.486-0.434-0.729-0.651c-4.661-4.166-9.334-8.316-14.02-12.454  c-0.381-0.336-0.763-0.673-1.144-1.009c-4.599-4.056-9.21-8.099-13.833-12.128c-0.392-0.341-0.783-0.683-1.175-1.024  c-4.687-4.08-9.386-8.146-14.097-12.198c-0.287-0.247-0.573-0.494-0.86-0.741c-4.945-4.25-9.903-8.486-14.876-12.705  c-0.026-0.022-0.053-0.045-0.079-0.067c-35.571-30.179-71.84-59.562-108.775-88.122c-0.373-0.288-0.745-0.575-1.118-0.862  c-4.817-3.721-9.646-7.429-14.486-11.122c-0.557-0.425-1.114-0.849-1.671-1.273c-4.692-3.576-9.395-7.138-14.108-10.688  c-0.621-0.468-1.243-0.936-1.864-1.403c-4.715-3.545-9.442-7.077-14.178-10.596c-0.566-0.42-1.132-0.842-1.698-1.262  c-4.899-3.634-9.809-7.253-14.73-10.859c-0.374-0.274-0.747-0.549-1.121-0.823c-32.284-23.63-65.046-46.646-98.27-69.03  c-0.138-0.093-0.277-0.185-0.415-0.278c-5.271-3.55-10.556-7.084-15.851-10.603c-0.581-0.386-1.162-0.769-1.743-1.154  c-4.872-3.232-9.752-6.452-14.643-9.657c-0.811-0.531-1.623-1.061-2.434-1.592c-4.694-3.069-9.396-6.127-14.108-9.172  c-0.909-0.588-1.819-1.175-2.729-1.761c-4.67-3.011-9.349-6.009-14.036-8.995c-0.894-0.57-1.788-1.14-2.682-1.708  c-4.787-3.042-9.583-6.071-14.388-9.088c-0.765-0.48-1.529-0.962-2.294-1.441c-5.079-3.183-10.168-6.35-15.267-9.504  c-0.476-0.294-0.95-0.59-1.426-0.884c-28.384-17.535-57.074-34.621-86.062-51.247c-0.334-0.192-0.669-0.382-1.004-0.573  c-5.325-3.051-10.659-6.087-16.003-9.107c-0.851-0.481-1.705-0.959-2.556-1.439c-4.844-2.731-9.695-5.451-14.555-8.157  c-1.117-0.622-2.236-1.241-3.354-1.861c-4.628-2.569-9.263-5.127-13.906-7.673c-1.235-0.677-2.472-1.353-3.708-2.029  c-4.562-2.493-9.13-4.975-13.705-7.445c-1.268-0.685-2.535-1.369-3.803-2.051c-4.611-2.481-9.229-4.949-13.854-7.408  c-1.197-0.637-2.395-1.275-3.593-1.91c-4.809-2.548-9.626-5.081-14.45-7.604c-0.995-0.521-1.988-1.043-2.984-1.563  c-5.243-2.735-10.496-5.454-15.756-8.159c-0.569-0.292-1.136-0.587-1.704-0.879c-23.781-12.211-47.742-24.121-71.878-35.724  c-0.592-0.285-1.186-0.566-1.779-0.851c-5.299-2.543-10.606-5.074-15.923-7.587c-1.163-0.55-2.328-1.095-3.491-1.643  c-4.763-2.245-9.531-4.48-14.307-6.702c-1.444-0.672-2.891-1.339-4.337-2.009c-4.519-2.093-9.042-4.176-13.573-6.248  c-1.586-0.725-3.174-1.447-4.762-2.17c-4.42-2.012-8.846-4.014-13.277-6.005c-1.643-0.738-3.287-1.476-4.931-2.211  c-4.425-1.979-8.857-3.947-13.293-5.906c-1.617-0.714-3.232-1.429-4.851-2.14c-4.543-1.997-9.094-3.98-13.648-5.956  c-1.494-0.648-2.987-1.299-4.482-1.944c-4.825-2.083-9.658-4.151-14.496-6.211c-1.215-0.518-2.429-1.039-3.646-1.555  c-5.494-2.33-10.997-4.644-16.507-6.942c-0.551-0.23-1.101-0.463-1.652-0.693c-18.57-7.736-37.233-15.294-55.985-22.673  c-0.877-0.345-1.756-0.685-2.633-1.029c-5.229-2.052-10.462-4.093-15.705-6.117c-1.501-0.58-3.006-1.153-4.509-1.73  c-4.635-1.781-9.274-3.556-13.92-5.314c-1.792-0.679-3.587-1.352-5.38-2.027c-4.374-1.647-8.751-3.287-13.135-4.914  c-1.943-0.722-3.889-1.439-5.833-2.157c-4.261-1.572-8.525-3.136-12.795-4.689c-2.012-0.732-4.025-1.462-6.04-2.19  c-4.234-1.53-8.473-3.051-12.715-4.564c-2.019-0.719-4.037-1.439-6.057-2.154c-4.298-1.522-8.601-3.032-12.908-4.535  c-1.951-0.681-3.9-1.364-5.853-2.042c-4.47-1.55-8.947-3.086-13.426-4.616c-1.78-0.607-3.557-1.22-5.338-1.825  c-4.878-1.656-9.764-3.295-14.653-4.928c-1.376-0.459-2.75-0.925-4.127-1.382c-6.021-2.001-12.05-3.984-18.088-5.948  c-0.242-0.079-0.483-0.159-0.725-0.238c-12.828-4.17-25.694-8.257-38.595-12.263c-1.151-0.357-2.306-0.708-3.458-1.064  c-5.155-1.593-10.313-3.178-15.479-4.746c-1.818-0.551-3.64-1.094-5.459-1.643c-4.512-1.359-9.027-2.714-13.547-4.053  c-2.115-0.626-4.232-1.245-6.349-1.867c-4.24-1.246-8.482-2.487-12.73-3.716c-2.271-0.656-4.544-1.307-6.817-1.958  c-4.116-1.18-8.234-2.354-12.357-3.517c-2.343-0.661-4.687-1.318-7.032-1.973c-4.08-1.141-8.164-2.272-12.25-3.396  c-2.362-0.65-4.725-1.298-7.089-1.942c-4.11-1.12-8.225-2.229-12.342-3.332c-2.327-0.624-4.654-1.248-6.983-1.866  c-4.211-1.118-8.427-2.222-12.645-3.322c-2.231-0.582-4.461-1.167-6.694-1.745c-4.453-1.15-8.912-2.285-13.372-3.416  c-1.993-0.505-3.984-1.017-5.979-1.519c-5.061-1.272-10.129-2.526-15.199-3.773c-1.395-0.343-2.788-0.694-4.184-1.035  c-13.08-3.197-26.193-6.312-39.338-9.341c-1.361-0.313-2.725-0.618-4.086-0.93c-5.129-1.175-10.261-2.342-15.4-3.491  c-2.096-0.469-4.197-0.927-6.295-1.392c-4.408-0.976-8.818-1.949-13.233-2.905c-2.405-0.521-4.813-1.033-7.22-1.548  c-4.128-0.884-8.257-1.765-12.392-2.632c-2.546-0.534-5.095-1.061-7.644-1.589c-4.008-0.831-8.019-1.656-12.033-2.471  c-2.625-0.533-5.252-1.061-7.88-1.587c-3.957-0.792-7.917-1.578-11.88-2.355c-2.657-0.521-5.316-1.04-7.975-1.554  c-3.958-0.766-7.92-1.521-11.884-2.272c-2.651-0.501-5.302-1.003-7.955-1.499c-4.026-0.751-8.057-1.49-12.089-2.225  c-2.58-0.471-5.16-0.944-7.742-1.408c-4.189-0.752-8.383-1.491-12.577-2.227c-2.427-0.425-4.851-0.857-7.28-1.277  c-4.557-0.788-9.12-1.558-13.683-2.326c-2.068-0.348-4.133-0.704-6.202-1.048c-5.803-0.964-11.613-1.908-17.427-2.84  c-0.831-0.133-1.66-0.272-2.491-0.405c-6.713-1.07-13.433-2.118-20.161-3.144c-1.432-0.218-2.868-0.427-4.301-0.643  c-5.223-0.79-10.449-1.573-15.681-2.336c-2.298-0.335-4.601-0.658-6.901-0.988c-4.374-0.627-8.747-1.254-13.127-1.863  c-2.609-0.363-5.221-0.714-7.832-1.071c-4.08-0.557-8.161-1.112-12.246-1.653c-2.76-0.365-5.524-0.722-8.287-1.08  c-3.95-0.512-7.902-1.021-11.857-1.518c-2.837-0.356-5.676-0.707-8.516-1.055c-3.899-0.479-7.799-0.952-11.702-1.416  c-2.866-0.341-5.734-0.678-8.602-1.011c-3.9-0.453-7.803-0.897-11.707-1.335c-2.862-0.321-5.725-0.642-8.59-0.955  c-3.938-0.431-7.879-0.851-11.821-1.266c-2.83-0.299-5.66-0.599-8.492-0.89c-4.036-0.415-8.077-0.815-12.118-1.214  c-2.73-0.27-5.459-0.543-8.191-0.806c-4.287-0.412-8.579-0.806-12.871-1.2c-2.487-0.229-4.972-0.464-7.461-0.687  c-4.956-0.443-9.917-0.865-14.88-1.284c-1.832-0.155-3.66-0.319-5.493-0.47c-6.808-0.563-13.622-1.104-20.442-1.623  c-1.176-0.089-2.354-0.169-3.53-0.257c-5.627-0.421-11.257-0.833-16.893-1.224c-2.392-0.166-4.789-0.317-7.183-0.478  c-4.427-0.296-8.853-0.593-13.284-0.871c-2.739-0.172-5.482-0.331-8.223-0.495c-4.096-0.246-8.192-0.491-12.292-0.721  c-2.891-0.162-5.785-0.313-8.678-0.467c-3.963-0.211-7.927-0.419-11.894-0.615c-2.966-0.146-5.933-0.285-8.901-0.423  c-3.911-0.182-7.823-0.359-11.737-0.526c-2.996-0.128-5.994-0.251-8.992-0.371c-3.9-0.155-7.802-0.303-11.706-0.444  c-3.005-0.108-6.01-0.214-9.018-0.314c-3.922-0.13-7.846-0.25-11.772-0.365c-2.981-0.088-5.961-0.176-8.945-0.255  c-4.005-0.106-8.012-0.199-12.021-0.29c-2.897-0.066-5.793-0.135-8.693-0.193c-4.184-0.083-8.371-0.15-12.559-0.216  c-2.729-0.043-5.456-0.094-8.186-0.13c-4.625-0.061-9.256-0.103-13.886-0.144c-2.292-0.02-4.581-0.05-6.874-0.065  C3086.862,0.026,3079.934,0,3073,0c-19.882,0-39.72,0.189-59.513,0.565c-13.195,0.25-26.369,0.584-39.523,1.001  c-32.884,1.041-65.638,2.6-98.253,4.667c-19.569,1.24-39.089,2.664-58.557,4.269c-6.489,0.535-12.973,1.09-19.451,1.666  c-12.956,1.15-25.888,2.381-38.797,3.692C1313.103,162.69,163.69,1312.103,16.86,2757.906c-1.311,12.909-2.542,25.842-3.693,38.797  c-0.575,6.478-1.13,12.961-1.666,19.451c-1.605,19.468-3.029,38.988-4.269,58.557c-2.067,32.615-3.626,65.369-4.667,98.253  c-0.417,13.154-0.75,26.328-1.001,39.523C1.189,3032.28,1,3052.118,1,3072c0,6.934,0.026,13.862,0.072,20.785  c0.015,2.293,0.045,4.582,0.065,6.874c0.041,4.63,0.082,9.261,0.144,13.886c0.036,2.73,0.086,5.458,0.13,8.186  c0.066,4.188,0.133,8.375,0.216,12.559c0.058,2.899,0.127,5.795,0.193,8.693c0.091,4.009,0.184,8.016,0.29,12.021  c0.079,2.983,0.167,5.964,0.255,8.945c0.115,3.926,0.235,7.85,0.365,11.772c0.1,3.007,0.206,6.012,0.314,9.018  c0.141,3.904,0.289,7.806,0.444,11.706c0.12,2.999,0.242,5.996,0.37,8.992c0.167,3.915,0.344,7.826,0.526,11.737  c0.138,2.968,0.276,5.936,0.423,8.901c0.196,3.967,0.404,7.931,0.615,11.894c0.154,2.893,0.305,5.787,0.467,8.678  c0.23,4.1,0.475,8.196,0.721,12.292c0.165,2.741,0.323,5.484,0.495,8.223c0.278,4.431,0.574,8.858,0.871,13.284  c0.16,2.394,0.312,4.79,0.478,7.183c0.391,5.635,0.803,11.265,1.224,16.893c0.088,1.176,0.168,2.354,0.257,3.53  c0.518,6.82,1.06,13.634,1.623,20.442c0.151,1.833,0.316,3.661,0.47,5.493c0.419,4.963,0.841,9.924,1.284,14.88  c0.222,2.489,0.458,4.974,0.686,7.461c0.394,4.292,0.788,8.584,1.2,12.871c0.262,2.732,0.536,5.461,0.806,8.191  c0.399,4.041,0.799,8.081,1.214,12.118c0.291,2.832,0.591,5.662,0.89,8.492c0.416,3.942,0.835,7.883,1.266,11.821  c0.313,2.865,0.633,5.727,0.955,8.59c0.438,3.904,0.883,7.807,1.335,11.707c0.333,2.869,0.67,5.736,1.011,8.602  c0.464,3.903,0.937,7.803,1.416,11.702c0.349,2.84,0.699,5.679,1.055,8.516c0.497,3.955,1.005,7.907,1.517,11.857  c0.358,2.763,0.714,5.526,1.08,8.287c0.541,4.085,1.096,8.166,1.653,12.246c0.356,2.611,0.708,5.223,1.071,7.832  c0.609,4.379,1.236,8.753,1.863,13.127c0.33,2.3,0.653,4.603,0.988,6.901c0.763,5.232,1.546,10.458,2.336,15.681  c0.217,1.433,0.425,2.868,0.643,4.301c1.026,6.728,2.074,13.448,3.144,20.161c0.132,0.831,0.271,1.66,0.405,2.491  c0.932,5.814,1.876,11.624,2.84,17.427c0.344,2.069,0.7,4.135,1.048,6.202c0.768,4.564,1.538,9.126,2.326,13.683  c0.42,2.428,0.851,4.853,1.277,7.28c0.736,4.195,1.474,8.389,2.227,12.577c0.464,2.583,0.938,5.162,1.408,7.742  c0.735,4.032,1.474,8.062,2.225,12.089c0.495,2.653,0.997,5.304,1.498,7.955c0.75,3.964,1.506,7.925,2.272,11.884  c0.514,2.66,1.033,5.318,1.554,7.975c0.777,3.963,1.563,7.923,2.355,11.88c0.526,2.628,1.054,5.255,1.587,7.88  c0.815,4.014,1.64,8.025,2.471,12.033c0.528,2.549,1.055,5.098,1.589,7.644c0.868,4.134,1.748,8.264,2.633,12.392  c0.515,2.407,1.027,4.815,1.548,7.22c0.957,4.415,1.93,8.824,2.906,13.233c0.464,2.098,0.922,4.199,1.391,6.295  c1.149,5.139,2.317,10.271,3.491,15.4c0.312,1.361,0.616,2.725,0.93,4.086c3.029,13.145,6.143,26.258,9.341,39.338  c0.341,1.396,0.692,2.788,1.035,4.184c1.247,5.07,2.501,10.138,3.773,15.199c0.502,1.995,1.013,3.986,1.518,5.979  c1.131,4.46,2.266,8.919,3.416,13.372c0.577,2.233,1.163,4.463,1.745,6.694c1.1,4.218,2.204,8.434,3.322,12.645  c0.618,2.329,1.243,4.656,1.867,6.983c1.103,4.117,2.212,8.231,3.332,12.342c0.644,2.364,1.292,4.727,1.942,7.089  c1.124,4.087,2.256,8.17,3.396,12.25c0.655,2.345,1.313,4.689,1.973,7.032c1.163,4.123,2.336,8.241,3.516,12.357  c0.652,2.273,1.302,4.546,1.959,6.817c1.228,4.248,2.469,8.49,3.716,12.73c0.622,2.116,1.241,4.234,1.867,6.349  c1.339,4.521,2.694,9.035,4.054,13.547c0.548,1.819,1.091,3.641,1.643,5.459c1.567,5.166,3.152,10.324,4.745,15.479  c0.356,1.152,0.706,2.307,1.064,3.458c4.005,12.901,8.092,25.767,12.263,38.595c0.079,0.242,0.159,0.483,0.238,0.725  c1.964,6.038,3.947,12.067,5.948,18.088c0.458,1.377,0.923,2.751,1.383,4.127c1.632,4.889,3.272,9.775,4.928,14.653  c0.604,1.779,1.215,3.554,1.823,5.332c1.532,4.485,3.07,8.968,4.622,13.443c0.673,1.941,1.352,3.879,2.029,5.818  c1.508,4.319,3.022,8.635,4.548,12.945c0.712,2.01,1.428,4.019,2.144,6.027c1.515,4.249,3.038,8.494,4.57,12.734  c0.728,2.012,1.457,4.024,2.189,6.035c1.556,4.276,3.122,8.547,4.696,12.813c0.714,1.936,1.428,3.871,2.146,5.804  c1.632,4.396,3.277,8.786,4.928,13.172c0.671,1.782,1.339,3.564,2.013,5.345c1.765,4.66,3.544,9.313,5.331,13.963  c0.572,1.489,1.14,2.979,1.714,4.467c2.026,5.248,4.069,10.486,6.123,15.72c0.343,0.875,0.682,1.752,1.027,2.627  c7.38,18.752,14.938,37.415,22.673,55.985c0.229,0.55,0.462,1.098,0.691,1.648c2.301,5.515,4.616,11.022,6.948,16.52  c0.511,1.204,1.027,2.405,1.539,3.608c2.063,4.848,4.135,9.69,6.223,14.524c0.645,1.494,1.295,2.985,1.942,4.478  c1.978,4.56,3.964,9.115,5.963,13.664c0.707,1.608,1.418,3.215,2.127,4.822c1.962,4.442,3.932,8.88,5.914,13.312  c0.735,1.644,1.472,3.287,2.21,4.929c1.991,4.431,3.993,8.857,6.005,13.277c0.723,1.587,1.445,3.175,2.17,4.761  c2.073,4.534,4.158,9.061,6.252,13.582c0.668,1.441,1.333,2.884,2.003,4.324c2.222,4.778,4.459,9.549,6.705,14.314  c0.548,1.163,1.093,2.327,1.642,3.489c2.514,5.316,5.044,10.624,7.588,15.923c0.284,0.593,0.566,1.187,0.85,1.779  c11.605,24.139,23.516,48.104,35.729,71.887c0.285,0.555,0.573,1.108,0.858,1.664c2.711,5.271,5.435,10.535,8.176,15.789  c0.519,0.995,1.041,1.987,1.561,2.98c2.525,4.829,5.061,9.65,7.611,14.464c0.63,1.188,1.263,2.375,1.894,3.563  c2.464,4.636,4.938,9.265,7.425,13.887c0.678,1.259,1.357,2.518,2.036,3.776c2.473,4.581,4.958,9.154,7.453,13.721  c0.675,1.235,1.351,2.471,2.027,3.706c2.549,4.649,5.111,9.29,7.683,13.924c0.616,1.109,1.23,2.218,1.846,3.327  c2.708,4.864,5.43,9.72,8.164,14.568c0.48,0.851,0.957,1.703,1.438,2.554c3.02,5.345,6.056,10.679,9.107,16.003  c0.192,0.334,0.382,0.67,0.573,1.004c16.627,28.988,33.713,57.678,51.247,86.062c0.294,0.476,0.59,0.95,0.884,1.425  c3.154,5.099,6.321,10.188,9.504,15.267c0.48,0.766,0.961,1.529,1.442,2.294c3.017,4.805,6.045,9.601,9.088,14.388  c0.568,0.894,1.138,1.787,1.707,2.681c2.989,4.692,5.99,9.375,9.004,14.049c0.581,0.902,1.163,1.803,1.745,2.704  c3.051,4.722,6.115,9.434,9.191,14.137c0.525,0.802,1.048,1.605,1.574,2.407c3.212,4.901,6.438,9.792,9.677,14.674  c0.379,0.571,0.756,1.143,1.135,1.713c3.521,5.299,7.057,10.586,10.609,15.861c0.093,0.138,0.185,0.276,0.278,0.414  c22.383,33.224,45.399,65.986,69.03,98.27c0.274,0.374,0.549,0.747,0.823,1.121c3.605,4.921,7.225,9.831,10.859,14.73  c0.42,0.566,0.841,1.131,1.262,1.697c3.522,4.74,7.056,9.471,10.604,14.19c0.462,0.614,0.924,1.228,1.386,1.842  c3.552,4.717,7.118,9.424,10.696,14.121c0.424,0.557,0.848,1.114,1.273,1.67c3.698,4.845,7.409,9.68,11.135,14.502  c0.281,0.364,0.562,0.729,0.843,1.093c28.565,36.941,57.952,73.215,88.136,108.792c0.015,0.018,0.03,0.035,0.045,0.053  c4.224,4.979,8.465,9.943,12.72,14.895c0.246,0.287,0.494,0.573,0.74,0.86c4.055,4.714,8.124,9.417,12.207,14.106  c0.335,0.385,0.67,0.77,1.006,1.154c4.036,4.631,8.085,9.249,12.148,13.855c0.33,0.375,0.66,0.749,0.99,1.123  c4.14,4.689,8.294,9.366,12.463,14.03c0.217,0.243,0.434,0.486,0.651,0.729c35.548,39.749,72.116,78.566,109.661,116.412  c0.093,0.094,0.187,0.188,0.28,0.282c4.538,4.574,9.092,9.132,13.659,13.677c0.255,0.254,0.51,0.507,0.765,0.761  c4.451,4.426,8.915,8.839,13.393,13.238c0.283,0.278,0.566,0.556,0.849,0.833c4.515,4.433,9.044,8.852,13.587,13.257  c0.199,0.193,0.398,0.386,0.597,0.579c38.324,37.143,77.611,73.297,117.823,108.42  C581.374,4846.534,295.612,4139.948,295.612,3366.612z" enable-background="new    " fill="#101111" opacity="0.15"/><polygon fill="#F9F9F9" points="388.009,3474.293 5183.425,1446.063 4168.009,4251.894 2655.215,3952.301 "/><polygon fill="#CCCDCE" points="2140.081,4849.424 1610.672,3736.301 4960.009,1629.736 2508.183,3921.301 "/><polygon fill="#B2B4B7" points="2508.183,3921.301 2131.798,4849.424 2785.717,3974.755 "/></svg>