<?xml version="1.0" ?><!DOCTYPE svg  PUBLIC '-//W3C//DTD SVG 1.1//EN'  'http://www.w3.org/Graphics/SVG/1.1/DTD/svg11.dtd'><svg enable-background="new 0 0 48 48" height="48px" id="Layer_1" version="1.1" viewBox="0 0 48 48" width="48px" xml:space="preserve" xmlns="http://www.w3.org/2000/svg" xmlns:xlink="http://www.w3.org/1999/xlink"><g><g><circle cx="24" cy="18.796" fill="#231F20" r="5.084"/><path d="M30.943,25.688H17.056c-0.904,0-1.638,0.733-1.638,1.638v10.337c2.501,1.554,5.443,2.467,8.605,2.467    c3.142,0,6.066-0.902,8.559-2.439V27.326C32.582,26.422,31.848,25.688,30.943,25.688z" fill="#231F20"/></g><path d="M24,0C10.745,0,0,10.745,0,24s10.745,24,24,24s24-10.745,24-24S37.255,0,24,0z M24.029,43.844   c-11.023,0-19.959-8.936-19.959-19.959S13.006,3.926,24.029,3.926s19.959,8.936,19.959,19.959S35.052,43.844,24.029,43.844z" fill="#231F20"/></g></svg>