<?xml version="1.0" ?><svg enable-background="new 0 0 64 64" height="64px" version="1.1" viewBox="0 0 64 64" width="64px" xml:space="preserve" xmlns="http://www.w3.org/2000/svg" xmlns:xlink="http://www.w3.org/1999/xlink"><g id="Layer_1"><g><circle cx="32" cy="32" fill="#E0E0D1" r="32"/></g><g opacity="0.2"><path d="M32,12c-12.15,0-22,9.85-22,22s9.85,22,22,22s22-9.85,22-22S44.15,12,32,12z M48,34    c0,3.329-1.024,6.423-2.771,8.986L23.014,20.771C25.577,19.024,28.671,18,32,18C40.822,18,48,25.178,48,34z M16,34    c0-3.329,1.024-6.423,2.771-8.986l22.215,22.215C38.423,48.976,35.329,50,32,50C23.178,50,16,42.822,16,34z" fill="#231F20"/></g><g><path d="M32,16c8.822,0,16,7.178,16,16s-7.178,16-16,16s-16-7.178-16-16S23.178,16,32,16 M32,10    c-12.15,0-22,9.85-22,22s9.85,22,22,22s22-9.85,22-22S44.15,10,32,10L32,10z" fill="#C75C5C"/></g><g><rect fill="#C75C5C" height="39.598" transform="matrix(0.7071 -0.7071 0.7071 0.7071 -13.2548 32)" width="5.999" x="29" y="12.201"/></g></g><g id="Layer_2"/></svg>