<?xml version="1.0" ?><svg enable-background="new 0 0 64 64" height="64px" id="Layer_1" version="1.1" viewBox="0 0 64 64" width="64px" xml:space="preserve" xmlns="http://www.w3.org/2000/svg" xmlns:xlink="http://www.w3.org/1999/xlink"><circle cx="32" cy="32" fill="#4F5D73" r="32"/><path d="M26.302,55c-1.65,0-3.955-0.955-5.121-2.121l-8.059-8.059C11.955,43.653,11,41.348,11,39.698  V28.302c0-1.65,0.955-3.955,2.121-5.121l8.059-8.059C22.347,13.955,24.652,13,26.302,13h11.397c1.65,0,3.955,0.955,5.121,2.121  l8.059,8.059C52.045,24.347,53,26.652,53,28.302v11.397c0,1.65-0.955,3.955-2.121,5.121l-8.059,8.059  C41.653,54.045,39.348,55,37.698,55H26.302z" fill="#231F20" opacity="0.2"/><path d="M26.302,53c-1.65,0-3.955-0.955-5.121-2.121l-8.059-8.059C11.955,41.653,11,39.348,11,37.698V26.302  c0-1.65,0.955-3.955,2.121-5.121l8.059-8.059C22.347,11.955,24.652,11,26.302,11h11.397c1.65,0,3.955,0.955,5.121,2.121l8.059,8.059  C52.045,22.347,53,24.652,53,26.302v11.397c0,1.65-0.955,3.955-2.121,5.121l-8.059,8.059C41.653,52.045,39.348,53,37.698,53H26.302z  " fill="#C75C5C"/><path d="M45,34c0,2.209-1.791,4-4,4H23c-2.209,0-4-1.791-4-4v-4c0-2.209,1.791-4,4-4h18c2.209,0,4,1.791,4,4V34z" fill="#FFFFFF"/></svg>