<svg xmlns="http://www.w3.org/2000/svg" xmlns:xlink="http://www.w3.org/1999/xlink" version="1.1" x="0px" y="0px" viewBox="-269 131 100 100" enable-background="new -269 131 100 100" xml:space="preserve"><style>.style0{fill:	#000000;}</style><g><path d="M-218.5 216.5c-1.1-1.1-2.1-2.3-3-3.6c-1 0.8-2.2 1.2-3.6 1.2c-3.4 0-6.2-3.2-6.3-6.2h7.1c-0.7-1.9-1.3-3.8-1.6-5.8h-27.9 v-4.9l7-7.2c0-6.9 0-12.8 0-14.1c0-10.6 7-19.3 17-21.4c0-1.1 0-1.9 0-2.1c0-2.5 2-4.7 4.5-4.7c2.5 0 4.5 2.2 4.5 4.7 c0 0.2 0 1 0 2.1c9.1 1.9 15.7 9.3 16.8 18.6c1.1-0.1 2.1-0.2 3.2-0.2c0.9 0 1.8 0 2.6 0.1c-1-10.4-7.6-19.2-17.1-22.9 c-1-4.7-5.2-8.2-10.1-8.2c-4.9 0-9 3.5-10.1 8.2c-10.4 4.1-17.3 14.1-17.3 25.8v11.7l-6.2 6.3c-0.5 0.6-0.9 1.3-0.9 2.1v8.9 c0 1.6 1.3 2.9 2.9 2.9h19.4c0 6.4 5.6 12 12.1 12c2.7 0 5.3-1 7.4-2.7C-217.9 217.1-218.2 216.8-218.5 216.5z"/><path d="M-200.2 220c-5.7 0-11.1-2.2-15.2-6.3c-8.4-8.4-8.4-22 0-30.4c4.1-4.1 9.5-6.3 15.2-6.3s11.1 2.2 15.2 6.3 c8.4 8.4 8.4 22 0 30.4C-189 217.8-194.4 220-200.2 220z M-200.2 182.9c-4.2 0-8.1 1.6-11 4.6c-6.1 6.1-6.1 16 0 22.1 c2.9 2.9 6.9 4.6 11 4.6s8.1-1.6 11-4.6c6.1-6.1 6.1-16 0-22.1C-192.1 184.5-196 182.9-200.2 182.9z"/><path d="M-193 203.7h-10.4c-0.6 0-1-0.4-1-1v-12.4c0-0.6 0.4-1 1-1h3.8c0.6 0 1 0.4 1 1v7.6h5.6c0.6 0 1 0.4 1 1 v3.8C-192 203.3-192.4 203.7-193 203.7z" class="style0"/></g></svg>