<svg xmlns="http://www.w3.org/2000/svg" version="1.1" x="0" y="0" viewBox="0 0 100 100" enable-background="new 0 0 100 100" xml:space="preserve"><path d="M66.1 45.2H55.5l11.5-11.5c0.1-0.1 0.2-0.3 0.3-0.5 0.1-0.3 0.1-0.7 0-1.1 -0.1-0.3-0.4-0.6-0.8-0.8 -0.2-0.1-0.4-0.1-0.5-0.1H52.1c-0.8 0-1.4 0.6-1.4 1.4 0 0.8 0.6 1.4 1.4 1.4h10.5L51.1 45.6c-0.1 0.1-0.2 0.3-0.3 0.5 -0.1 0.3-0.1 0.7 0 1.1 0.1 0.3 0.4 0.6 0.8 0.8 0.2 0.1 0.4 0.1 0.5 0.1H66.1c0.8 0 1.4-0.6 1.4-1.4C67.5 45.8 66.8 45.2 66.1 45.2zM45.2 52.2h-7.9l8.9-8.9c0.1-0.1 0.2-0.3 0.3-0.5 0.1-0.3 0.1-0.7 0-1.1 -0.1-0.3-0.4-0.6-0.8-0.8 -0.2-0.1-0.4-0.1-0.5-0.1H33.9c-0.8 0-1.4 0.6-1.4 1.4 0 0.8 0.6 1.4 1.4 1.4h7.9l-8.9 8.9c-0.1 0.1-0.2 0.3-0.3 0.5 -0.1 0.3-0.1 0.7 0 1.1 0.1 0.3 0.4 0.6 0.8 0.8 0.2 0.1 0.4 0.1 0.5 0.1h11.3c0.8 0 1.4-0.6 1.4-1.4C46.6 52.8 46 52.2 45.2 52.2zM54.1 65.9h-4.5l5.5-5.5c0.1-0.1 0.2-0.3 0.3-0.5 0.1-0.3 0.1-0.7 0-1.1 -0.1-0.3-0.4-0.6-0.8-0.8C54.4 58 54.3 58 54.1 58H46.1c-0.8 0-1.4 0.6-1.4 1.4 0 0.8 0.6 1.4 1.4 1.4h4.5l-5.5 5.5c-0.1 0.1-0.2 0.3-0.3 0.5 -0.1 0.3-0.1 0.7 0 1.1 0.1 0.3 0.4 0.6 0.8 0.8 0.2 0.1 0.4 0.1 0.5 0.1h7.9c0.8 0 1.4-0.6 1.4-1.4S54.9 65.9 54.1 65.9z"/></svg>